<?xml version="1.0" encoding="utf-8"?>
<!-- Generator: Adobe Illustrator 24.3.0, SVG Export Plug-In . SVG Version: 6.00 Build 0)  -->
<svg version="1.1" id="Layer_1" xmlns="http://www.w3.org/2000/svg" xmlns:xlink="http://www.w3.org/1999/xlink" x="0px" y="0px"
	 viewBox="0 0 646.5 103.4" style="enable-background:new 0 0 646.5 103.4;" xml:space="preserve">
<style type="text/css">
	.st0{clip-path:url(#SVGID_2_);}
	.st1{fill:#FFFFFF;}
</style>
<g>
	<defs>
		<rect id="SVGID_1_" x="0" width="646.5" height="103.4"/>
	</defs>
	<clipPath id="SVGID_2_">
		<use xlink:href="#SVGID_1_"  style="overflow:visible;"/>
	</clipPath>
	<g class="st0">
		<path class="st1" d="M67.4,65H4.7c-1.7,0-3.2-0.7-4.1-2.1c-0.8-1.5-0.8-3.2,0-4.6L32,2.7c0.8-1.5,2.4-2.4,4.1-2.4c0,0,0,0,0,0
			c1.7,0,3.2,0.9,4.1,2.4L55,28.3c1.3,2.3,0.6,5.2-1.7,6.5c-2.2,1.3-5.1,0.6-6.4-1.7L36.1,14.6L12.8,55.7h46.6L55.3,48H33.9
			c-2.6,0-4.7-2-4.7-4.6c0-2.6,2.1-4.6,4.7-4.6H58c1.7,0,3.3,1,4.1,2.5l9.4,16.9c0.8,1.5,0.8,3.1,0,4.5C70.7,64.3,69.1,65,67.4,65z"
			/>
		<path class="st1" d="M65.1,103.4c-1.7,0-3.3-1-4.1-2.5L46.2,74.5c-1.3-2.3-0.5-5.2,1.8-6.5c2.3-1.3,5.1-0.5,6.4,1.8l10.8,18.9
			L88.3,48H41.8l4.1,7.7h21.4c2.6,0,4.7,2,4.7,4.6c0,2.6-2.1,4.6-4.7,4.6H43.1c-1.7,0-3.3-0.7-4.1-2.2L29.6,46
			c-0.8-1.5-0.8-3.3,0-4.8s2.4-2.4,4.1-2.4h62.7c1.7,0,3.2,1,4.1,2.5c0.8,1.5,0.8,3.4,0,4.8L69.2,101
			C68.3,102.4,66.8,103.4,65.1,103.4z"/>
		<path class="st1" d="M150.6,41.4l-5.9,13.1h-6.9L162.5,0l24.6,54.5h-6.9l-5.9-13.1L150.6,41.4L150.6,41.4z M162.5,14.3l-9.2,21.2
			h18.3L162.5,14.3z"/>
		<path class="st1" d="M206.1,48.5h15.7v6h-22.1V2.2h6.4V48.5z"/>
		<path class="st1" d="M271.8,12.2c-3.7-3.3-8.8-5.1-13.6-5.1c-11.6,0-20.4,9.8-20.4,21.4c0,11.4,8.8,21.2,20.3,21.2
			c5.1,0,9.9-1.9,13.8-5.4v7.7c-4,2.4-9,3.7-13.6,3.7c-14.7,0-26.9-11.8-26.9-27c0-15.5,12.2-27.5,27.4-27.5c4.5,0,9.1,1.1,13,3.5
			V12.2z"/>
		<path class="st1" d="M318.1,23.3V2.2h6.4v52.3h-6.4V29.4h-24.6v25.1h-6.4V2.2h6.4v21.1H318.1z"/>
		<path class="st1" d="M342.1,2.2h27.7v6h-21.3v14.6h20.7v6h-20.7v19.8h21.3v6h-27.7V2.2z"/>
		<path class="st1" d="M394.7,20h-0.1l-6,34.5h-6.6L392.5,0l17.7,41.2L427.9,0l10.5,54.5h-6.6l-6-34.5h-0.1l-15.5,35.6L394.7,20z"/>
		<path class="st1" d="M459.7,41.4l-5.9,13.1H447L471.6,0l24.6,54.5h-6.9l-5.9-13.1L459.7,41.4L459.7,41.4z M471.6,14.3l-9.2,21.2
			h18.3L471.6,14.3z"/>
		<path class="st1" d="M517.2,54.5h-6.4V8.2h-12.2v-6h30.9v6h-12.2L517.2,54.5L517.2,54.5z"/>
		<path class="st1" d="M549,54.5h-6.4V2.2h6.4V54.5z"/>
		<path class="st1" d="M583.9,40.9l15.3-38.7h7l-22.4,55.1L561.4,2.2h7L583.9,40.9z"/>
		<path class="st1" d="M618.8,2.2h27.7v6h-21.3v14.6H646v6h-20.7v19.8h21.3v6h-27.7V2.2z"/>
		<path class="st1" d="M151.4,94.7v2.5h-11.5V77.1h3v17.6H151.4z"/>
		<path class="st1" d="M171.5,94.8l0,2.4h-12.4V77.1h12.4v2.4H162v6.4h7.6v2.3H162v6.5H171.5z"/>
		<path class="st1" d="M193.7,79.6h-6.4v17.6h-3V79.6h-6.4v-2.5h15.8V79.6z"/>
		<path class="st1" d="M202.7,75.8c0.4,0.7,0.7,1.4,0.8,2.2c0.1,0.7,0.2,1.5,0,2.2c-0.1,0.7-0.4,1.4-0.7,2.1
			c-0.4,0.7-0.9,1.3-1.5,1.8l-0.8-0.5c-0.2-0.1-0.2-0.2-0.2-0.4c0-0.1,0.1-0.3,0.2-0.3c0.2-0.3,0.4-0.6,0.6-1
			c0.2-0.4,0.3-0.9,0.3-1.4c0.1-0.5,0-1-0.1-1.5c-0.1-0.5-0.3-1-0.6-1.5c-0.1-0.2-0.2-0.4-0.1-0.6c0.1-0.2,0.2-0.3,0.4-0.4
			L202.7,75.8z"/>
		<path class="st1" d="M222.5,80.4c-0.1,0.2-0.2,0.3-0.3,0.3c-0.1,0.1-0.2,0.1-0.4,0.1c-0.2,0-0.4-0.1-0.6-0.2s-0.5-0.3-0.8-0.5
			c-0.3-0.2-0.7-0.4-1.2-0.5c-0.5-0.2-1-0.2-1.6-0.2c-0.6,0-1.1,0.1-1.5,0.2c-0.4,0.2-0.8,0.4-1.1,0.6c-0.3,0.3-0.5,0.6-0.7,0.9
			c-0.2,0.4-0.2,0.7-0.2,1.2c0,0.5,0.1,1,0.4,1.3c0.3,0.3,0.6,0.7,1.1,0.9c0.5,0.3,1,0.5,1.5,0.6c0.6,0.2,1.2,0.4,1.7,0.6
			c0.6,0.2,1.2,0.4,1.7,0.7c0.6,0.3,1.1,0.6,1.5,1c0.5,0.4,0.8,0.9,1.1,1.5c0.3,0.6,0.4,1.3,0.4,2.1c0,0.9-0.2,1.7-0.5,2.5
			c-0.3,0.8-0.7,1.5-1.3,2c-0.6,0.6-1.3,1-2.1,1.4c-0.8,0.3-1.8,0.5-2.9,0.5c-0.6,0-1.3-0.1-1.9-0.2c-0.6-0.1-1.2-0.3-1.7-0.5
			c-0.5-0.2-1-0.5-1.5-0.8c-0.5-0.3-0.9-0.7-1.3-1.1l0.9-1.4c0.1-0.1,0.2-0.2,0.3-0.3c0.1-0.1,0.2-0.1,0.4-0.1
			c0.2,0,0.4,0.1,0.7,0.3c0.2,0.2,0.6,0.4,1,0.7c0.4,0.3,0.8,0.5,1.4,0.7c0.5,0.2,1.2,0.3,1.9,0.3c0.6,0,1.2-0.1,1.7-0.2
			c0.5-0.2,0.9-0.4,1.2-0.7c0.3-0.3,0.6-0.7,0.8-1.1c0.2-0.4,0.3-0.9,0.3-1.4c0-0.6-0.1-1.1-0.4-1.4c-0.3-0.4-0.6-0.7-1.1-0.9
			c-0.5-0.3-1-0.5-1.5-0.6c-0.6-0.2-1.2-0.4-1.7-0.6c-0.6-0.2-1.2-0.4-1.7-0.7c-0.6-0.3-1.1-0.6-1.5-1c-0.5-0.4-0.8-0.9-1.1-1.5
			c-0.3-0.6-0.4-1.4-0.4-2.3c0-0.7,0.1-1.4,0.4-2.1c0.3-0.7,0.7-1.3,1.2-1.8s1.2-0.9,2-1.2c0.8-0.3,1.7-0.5,2.7-0.5
			c1.1,0,2.2,0.2,3.1,0.5c1,0.4,1.8,0.9,2.5,1.6L222.5,80.4z"/>
		<path class="st1" d="M256.9,79.6h-6.4v17.6h-3V79.6h-6.4v-2.5h15.8V79.6z"/>
		<path class="st1" d="M279.6,97.2H277c-0.5,0-0.9-0.2-1.2-0.6l-5-7c-0.2-0.2-0.3-0.4-0.5-0.5c-0.2-0.1-0.5-0.1-0.8-0.1h-2v8.2h-3
			V77.1h5.8c1.3,0,2.4,0.1,3.4,0.4c0.9,0.3,1.7,0.6,2.3,1.1c0.6,0.5,1.1,1.1,1.4,1.8c0.3,0.7,0.4,1.5,0.4,2.3c0,0.7-0.1,1.4-0.3,2
			c-0.2,0.6-0.5,1.2-0.9,1.7c-0.4,0.5-0.9,0.9-1.5,1.3c-0.6,0.3-1.3,0.6-2,0.8c0.4,0.2,0.7,0.5,1,0.9L279.6,97.2z M270.3,86.8
			c0.8,0,1.4-0.1,2-0.3c0.6-0.2,1.1-0.4,1.5-0.8c0.4-0.3,0.7-0.7,0.9-1.2c0.2-0.5,0.3-1,0.3-1.6c0-1.2-0.4-2-1.1-2.6
			c-0.8-0.6-1.9-0.9-3.4-0.9h-2.8v7.3H270.3z"/>
		<path class="st1" d="M303.6,97.2h-2.3c-0.3,0-0.5-0.1-0.6-0.2c-0.2-0.1-0.3-0.3-0.4-0.5l-1.8-4.7h-8.9l-1.8,4.7
			c-0.1,0.2-0.2,0.3-0.4,0.5c-0.2,0.1-0.4,0.2-0.6,0.2h-2.3l8-20.1h3L303.6,97.2z M297.7,89.7l-3-7.8c-0.2-0.5-0.4-1.2-0.6-2
			c-0.1,0.4-0.2,0.8-0.3,1.1c-0.1,0.3-0.2,0.6-0.3,0.9l-3,7.8H297.7z"/>
		<path class="st1" d="M327.3,77.1v20.1h-1.5c-0.2,0-0.4,0-0.6-0.1c-0.2-0.1-0.3-0.2-0.5-0.4L313.4,82c0,0.3,0,0.5,0,0.7
			c0,0.2,0,0.5,0,0.7v13.8h-2.6V77.1h1.5c0.3,0,0.5,0,0.6,0.1c0.1,0.1,0.3,0.2,0.4,0.4l11.4,14.7c0-0.3,0-0.5-0.1-0.8
			c0-0.3,0-0.5,0-0.7V77.1L327.3,77.1L327.3,77.1z"/>
		<path class="st1" d="M347.4,80.4c-0.1,0.2-0.2,0.3-0.3,0.3c-0.1,0.1-0.2,0.1-0.4,0.1c-0.2,0-0.4-0.1-0.6-0.2
			c-0.2-0.2-0.5-0.3-0.8-0.5c-0.3-0.2-0.7-0.4-1.2-0.5c-0.5-0.2-1-0.2-1.6-0.2c-0.6,0-1.1,0.1-1.5,0.2c-0.4,0.2-0.8,0.4-1.1,0.6
			c-0.3,0.3-0.5,0.6-0.7,0.9c-0.2,0.4-0.2,0.7-0.2,1.2c0,0.5,0.1,1,0.4,1.3c0.3,0.3,0.6,0.7,1.1,0.9c0.5,0.3,1,0.5,1.5,0.6
			c0.6,0.2,1.2,0.4,1.7,0.6c0.6,0.2,1.2,0.4,1.7,0.7c0.6,0.3,1.1,0.6,1.5,1c0.5,0.4,0.8,0.9,1.1,1.5c0.3,0.6,0.4,1.3,0.4,2.1
			c0,0.9-0.2,1.7-0.5,2.5c-0.3,0.8-0.7,1.5-1.3,2c-0.6,0.6-1.3,1-2.1,1.4c-0.8,0.3-1.8,0.5-2.9,0.5c-0.6,0-1.3-0.1-1.9-0.2
			c-0.6-0.1-1.2-0.3-1.7-0.5c-0.5-0.2-1-0.5-1.5-0.8c-0.5-0.3-0.9-0.7-1.3-1.1l0.9-1.4c0.1-0.1,0.2-0.2,0.3-0.3
			c0.1-0.1,0.2-0.1,0.4-0.1c0.2,0,0.4,0.1,0.7,0.3c0.2,0.2,0.6,0.4,1,0.7c0.4,0.3,0.8,0.5,1.4,0.7c0.5,0.2,1.2,0.3,1.9,0.3
			c0.6,0,1.2-0.1,1.7-0.2c0.5-0.2,0.9-0.4,1.2-0.7c0.3-0.3,0.6-0.7,0.8-1.1c0.2-0.4,0.3-0.9,0.3-1.4c0-0.6-0.1-1.1-0.4-1.4
			c-0.3-0.4-0.6-0.7-1.1-0.9c-0.5-0.3-1-0.5-1.5-0.6c-0.6-0.2-1.2-0.4-1.7-0.6c-0.6-0.2-1.2-0.4-1.7-0.7c-0.6-0.3-1.1-0.6-1.5-1
			c-0.5-0.4-0.8-0.9-1.1-1.5c-0.3-0.6-0.4-1.4-0.4-2.3c0-0.7,0.1-1.4,0.4-2.1c0.3-0.7,0.7-1.3,1.2-1.8s1.2-0.9,2-1.2
			c0.8-0.3,1.7-0.5,2.7-0.5c1.1,0,2.2,0.2,3.1,0.5c1,0.4,1.8,0.9,2.5,1.6L347.4,80.4z"/>
		<path class="st1" d="M360,79.5v6.7h8.1v2.4H360v8.5h-3V77.1h12.4v2.4H360z"/>
		<path class="st1" d="M396.2,87.2c0,1.5-0.2,2.9-0.7,4.1c-0.5,1.2-1.2,2.3-2,3.2c-0.9,0.9-1.9,1.6-3.2,2.1
			c-1.2,0.5-2.6,0.8-4.1,0.8c-1.5,0-2.8-0.3-4.1-0.8c-1.2-0.5-2.3-1.2-3.2-2.1c-0.9-0.9-1.5-2-2-3.2c-0.5-1.2-0.7-2.6-0.7-4.1
			c0-1.5,0.2-2.9,0.7-4.1c0.5-1.2,1.2-2.3,2-3.2c0.9-0.9,1.9-1.6,3.2-2.1c1.2-0.5,2.6-0.8,4.1-0.8c1.5,0,2.8,0.3,4.1,0.8
			c1.2,0.5,2.3,1.2,3.2,2.1c0.9,0.9,1.6,2,2,3.2C396,84.3,396.2,85.7,396.2,87.2z M393.2,87.2c0-1.2-0.2-2.3-0.5-3.2
			c-0.3-0.9-0.8-1.8-1.4-2.4c-0.6-0.7-1.3-1.2-2.2-1.5c-0.9-0.3-1.8-0.5-2.9-0.5c-1,0-2,0.2-2.9,0.5c-0.9,0.3-1.6,0.9-2.2,1.5
			c-0.6,0.7-1.1,1.5-1.4,2.4c-0.3,0.9-0.5,2-0.5,3.2c0,1.2,0.2,2.3,0.5,3.2c0.3,0.9,0.8,1.8,1.4,2.4c0.6,0.7,1.3,1.2,2.2,1.5
			c0.9,0.3,1.8,0.5,2.9,0.5c1,0,2-0.2,2.9-0.5c0.9-0.3,1.6-0.9,2.2-1.5c0.6-0.7,1.1-1.5,1.4-2.4C393,89.4,393.2,88.4,393.2,87.2z"/>
		<path class="st1" d="M419.8,97.2h-2.7c-0.5,0-0.9-0.2-1.2-0.6l-5-7c-0.2-0.2-0.3-0.4-0.5-0.5c-0.2-0.1-0.5-0.1-0.8-0.1h-2v8.2h-3
			V77.1h5.8c1.3,0,2.4,0.1,3.4,0.4s1.7,0.6,2.3,1.1s1.1,1.1,1.4,1.8c0.3,0.7,0.4,1.5,0.4,2.3c0,0.7-0.1,1.4-0.3,2
			c-0.2,0.6-0.5,1.2-0.9,1.7c-0.4,0.5-0.9,0.9-1.5,1.3c-0.6,0.3-1.3,0.6-2,0.8c0.4,0.2,0.7,0.5,1,0.9L419.8,97.2z M410.4,86.8
			c0.8,0,1.4-0.1,2-0.3c0.6-0.2,1.1-0.4,1.5-0.8c0.4-0.3,0.7-0.7,0.9-1.2c0.2-0.5,0.3-1,0.3-1.6c0-1.2-0.4-2-1.1-2.6
			c-0.8-0.6-1.9-0.9-3.4-0.9h-2.8v7.3H410.4z"/>
		<path class="st1" d="M448.3,77.1v20.1h-2.6V82.9c0-0.2,0-0.4,0-0.7c0-0.2,0-0.5,0-0.7l-6.7,12.2c-0.2,0.5-0.6,0.7-1.1,0.7h-0.4
			c-0.5,0-0.8-0.2-1.1-0.7l-6.8-12.3c0.1,0.5,0.1,1,0.1,1.5v14.3h-2.6V77.1h2.2c0.3,0,0.5,0,0.6,0.1c0.1,0,0.3,0.2,0.4,0.4l6.7,12
			c0.1,0.2,0.2,0.5,0.4,0.8c0.1,0.3,0.2,0.5,0.3,0.8c0.2-0.6,0.4-1.1,0.7-1.6l6.6-12c0.1-0.2,0.2-0.4,0.4-0.4c0.1,0,0.3-0.1,0.6-0.1
			L448.3,77.1L448.3,77.1z"/>
		<path class="st1" d="M482.8,79.6h-6.4v17.6h-3V79.6H467v-2.5h15.8V79.6z"/>
		<path class="st1" d="M508.3,87.2c0,1.5-0.2,2.9-0.7,4.1c-0.5,1.2-1.2,2.3-2,3.2c-0.9,0.9-1.9,1.6-3.2,2.1
			c-1.2,0.5-2.6,0.8-4.1,0.8c-1.5,0-2.8-0.3-4.1-0.8c-1.2-0.5-2.3-1.2-3.2-2.1c-0.9-0.9-1.5-2-2-3.2c-0.5-1.2-0.7-2.6-0.7-4.1
			c0-1.5,0.2-2.9,0.7-4.1c0.5-1.2,1.2-2.3,2-3.2c0.9-0.9,1.9-1.6,3.2-2.1c1.2-0.5,2.6-0.8,4.1-0.8c1.5,0,2.8,0.3,4.1,0.8
			c1.2,0.5,2.3,1.2,3.2,2.1c0.9,0.9,1.6,2,2,3.2C508,84.3,508.3,85.7,508.3,87.2z M505.2,87.2c0-1.2-0.2-2.3-0.5-3.2
			c-0.3-0.9-0.8-1.8-1.4-2.4c-0.6-0.7-1.3-1.2-2.2-1.5c-0.9-0.3-1.8-0.5-2.9-0.5s-2,0.2-2.9,0.5c-0.9,0.3-1.6,0.9-2.2,1.5
			c-0.6,0.7-1.1,1.5-1.4,2.4c-0.3,0.9-0.5,2-0.5,3.2c0,1.2,0.2,2.3,0.5,3.2c0.3,0.9,0.8,1.8,1.4,2.4c0.6,0.7,1.3,1.2,2.2,1.5
			c0.9,0.3,1.8,0.5,2.9,0.5s2-0.2,2.9-0.5c0.9-0.3,1.6-0.9,2.2-1.5c0.6-0.7,1.1-1.5,1.4-2.4C505.1,89.4,505.2,88.4,505.2,87.2z"/>
		<path class="st1" d="M533.2,87.4v7.8c-1,0.7-2.1,1.3-3.2,1.6c-1.1,0.4-2.4,0.5-3.8,0.5c-1.6,0-3.1-0.3-4.4-0.8
			c-1.3-0.5-2.4-1.2-3.4-2.1c-0.9-0.9-1.6-2-2.1-3.2c-0.5-1.2-0.8-2.6-0.8-4.1c0-1.5,0.2-2.9,0.7-4.2c0.5-1.3,1.2-2.3,2.1-3.2
			c0.9-0.9,2-1.6,3.2-2.1c1.3-0.5,2.7-0.7,4.3-0.7c0.8,0,1.5,0.1,2.2,0.2c0.7,0.1,1.3,0.3,1.9,0.5c0.6,0.2,1.1,0.5,1.6,0.8
			c0.5,0.3,1,0.7,1.4,1.1l-0.9,1.3c-0.1,0.2-0.3,0.3-0.5,0.4c-0.2,0.1-0.5,0-0.7-0.2c-0.2-0.1-0.5-0.3-0.8-0.5
			c-0.3-0.2-0.6-0.4-1-0.5c-0.4-0.2-0.9-0.3-1.4-0.4c-0.5-0.1-1.2-0.2-1.9-0.2c-1.1,0-2.1,0.2-3,0.5c-0.9,0.4-1.6,0.9-2.3,1.6
			c-0.6,0.7-1.1,1.5-1.4,2.4c-0.3,0.9-0.5,2-0.5,3.2c0,1.2,0.2,2.3,0.5,3.3c0.4,1,0.9,1.8,1.5,2.5c0.7,0.7,1.4,1.2,2.4,1.6
			c0.9,0.3,2,0.5,3.1,0.5c0.5,0,0.9,0,1.2-0.1c0.4,0,0.7-0.1,1.1-0.2c0.4-0.1,0.7-0.2,1-0.3c0.3-0.1,0.7-0.3,1-0.5v-4.2h-3
			c-0.2,0-0.3-0.1-0.5-0.2c-0.1-0.1-0.2-0.3-0.2-0.4v-1.7H533.2z"/>
		<path class="st1" d="M554.5,94.8l0,2.4H542V77.1h12.4v2.4H545v6.4h7.6v2.3H545v6.5H554.5z"/>
		<path class="st1" d="M576.7,79.6h-6.4v17.6h-3V79.6h-6.4v-2.5h15.8V79.6z"/>
		<path class="st1" d="M600.8,77.1v20.1h-3v-9h-10.5v9h-3V77.1h3V86h10.5v-8.9H600.8z"/>
		<path class="st1" d="M623,94.8l0,2.4h-12.4V77.1H623v2.4h-9.5v6.4h7.6v2.3h-7.6v6.5H623z"/>
		<path class="st1" d="M646.5,97.2h-2.7c-0.5,0-0.9-0.2-1.2-0.6l-5-7c-0.2-0.2-0.3-0.4-0.5-0.5c-0.2-0.1-0.5-0.1-0.8-0.1h-2v8.2h-3
			V77.1h5.8c1.3,0,2.4,0.1,3.4,0.4c0.9,0.3,1.7,0.6,2.3,1.1c0.6,0.5,1.1,1.1,1.4,1.8c0.3,0.7,0.4,1.5,0.4,2.3c0,0.7-0.1,1.4-0.3,2
			c-0.2,0.6-0.5,1.2-0.9,1.7c-0.4,0.5-0.9,0.9-1.5,1.3c-0.6,0.3-1.3,0.6-2,0.8c0.4,0.2,0.7,0.5,1,0.9L646.5,97.2z M637.2,86.8
			c0.8,0,1.4-0.1,2-0.3c0.6-0.2,1.1-0.4,1.5-0.8c0.4-0.3,0.7-0.7,0.9-1.2c0.2-0.5,0.3-1,0.3-1.6c0-1.2-0.4-2-1.1-2.6
			c-0.8-0.6-1.9-0.9-3.4-0.9h-2.8v7.3H637.2z"/>
	</g>
</g>
</svg>
