<svg width="150" height="24" viewBox="0 0 150 24" fill="none" xmlns="http://www.w3.org/2000/svg">
<g clip-path="url(#clip0_2208_41295)">
<path d="M15.6472 15.0718H1.09285C0.701543 15.0718 0.342847 14.9176 0.147195 14.5763C-0.048457 14.2349 -0.048457 13.8422 0.143572 13.5009L7.42256 0.625502C7.61459 0.284166 7.97328 0.0712891 8.36459 0.0712891C8.36821 0.0712891 8.36821 0.0712891 8.36821 0.0712891C8.75589 0.0712891 9.11459 0.291506 9.31024 0.629173L12.7559 6.57137C13.0602 7.09989 12.8863 7.77889 12.3682 8.09087C11.8465 8.39917 11.1798 8.22667 10.8718 7.69814L8.3827 3.38556L2.97691 12.9283H13.7776L12.8284 11.1409H7.86459C7.25951 11.1409 6.77038 10.6821 6.77038 10.0691C6.77038 9.45621 7.25951 8.99743 7.86459 8.99743H13.4624C13.8573 8.99743 14.2197 9.23967 14.4153 9.58834L16.6001 13.5192C16.7921 13.8606 16.7885 14.2313 16.5928 14.5726C16.3936 14.9139 16.0349 15.0718 15.6472 15.0718Z" fill="#A62632"/>
<path d="M15.1041 24.0007C14.7092 24.0007 14.3469 23.7695 14.1549 23.4245L10.7092 17.2951C10.4121 16.7629 10.5933 16.0839 11.1186 15.7793C11.644 15.4783 12.3107 15.6581 12.6078 16.1903L15.1114 20.5763L20.481 11.1437H9.69834L10.6476 12.9311H15.6114C16.2165 12.9311 16.7056 13.3899 16.7056 14.0028C16.7056 14.6158 16.2165 15.0746 15.6114 15.0746H10.0099C9.61501 15.0746 9.25269 14.9167 9.05704 14.5681L6.87225 10.6812C6.68023 10.3399 6.68385 9.9068 6.8795 9.56546C7.07515 9.22412 7.43385 9.00391 7.82153 9.00391H22.3795C22.7708 9.00391 23.1331 9.24247 23.3252 9.58748C23.5208 9.93249 23.5208 10.3656 23.3215 10.7106L16.0498 23.4245C15.8541 23.7658 15.4954 24.0007 15.1041 24.0007Z" fill="#A62632"/>
<path d="M34.9476 9.60244L33.5816 12.6414H31.9766L37.694 0.000976562L43.4113 12.6451H41.8099L40.444 9.60611H34.9476V9.60244ZM37.694 3.31524L35.5671 8.22242H39.8208L37.694 3.31524Z" fill="#3B3B3B"/>
<path d="M47.8092 11.2612H51.4468V12.6449H46.3164V0.514648H47.8092V11.2612Z" fill="#3B3B3B"/>
<path d="M63.0559 2.83045C62.1972 2.05969 61.0233 1.64127 59.8965 1.64127C57.2117 1.64127 55.1646 3.90951 55.1646 6.59616C55.1646 9.24978 57.1972 11.518 59.8639 11.518C61.0378 11.518 62.1683 11.0666 63.0559 10.2628V12.0465C62.1356 12.5934 60.9581 12.898 59.911 12.898C56.498 12.898 53.6719 10.149 53.6719 6.6402C53.6719 3.05433 56.5125 0.253906 60.0378 0.253906C61.0849 0.253906 62.1501 0.510826 63.0559 1.07238V2.83045Z" fill="#3B3B3B"/>
<path d="M73.8092 5.40347V0.514648H75.302V12.6413H73.8092V6.8202H68.1099V12.6413H66.6172V0.514648H68.1099V5.40347H73.8092Z" fill="#3B3B3B"/>
<path d="M79.3633 0.514648H85.7944V1.89835H80.856V5.29336H85.6531V6.67706H80.856V11.2612H85.7944V12.6449H79.3633V0.514648Z" fill="#3B3B3B"/>
<path d="M91.5768 4.63288H91.5442L90.1492 12.6414H88.6094L91.0514 0.000976562L95.1637 9.55473L99.276 0.000976562L101.722 12.6451H100.182L98.7833 4.63655H98.7507L95.1637 12.9057L91.5768 4.63288Z" fill="#3B3B3B"/>
<path d="M106.663 9.60244L105.297 12.6414H103.695L109.409 0.000976562L115.126 12.6451H113.521L112.155 9.60611H106.663V9.60244ZM109.409 3.31524L107.282 8.22242H111.536L109.409 3.31524Z" fill="#3B3B3B"/>
<path d="M119.986 12.6449H118.493V1.89835H115.652V0.514648H122.83V1.89835H119.989V12.6449H119.986Z" fill="#3B3B3B"/>
<path d="M127.36 12.6449H125.867V0.514648H127.36V12.6449Z" fill="#3B3B3B"/>
<path d="M135.457 9.49217L139.014 0.518319H140.649L135.457 13.2909L130.25 0.514648H131.884L135.457 9.49217Z" fill="#3B3B3B"/>
<path d="M143.574 0.514648H150.005V1.89835H145.067V5.29336H149.864V6.67706H145.067V11.2612H150.005V12.6449H143.574V0.514648Z" fill="#3B3B3B"/>
<path d="M35.1159 21.9676V22.5475H32.4492V17.8936H33.1412V21.9676H35.1159Z" fill="black"/>
<path d="M39.7936 21.9849L39.79 22.5465H36.9023V17.8926H39.79V18.4541H37.5944V19.9296H39.3589V20.4691H37.5944V21.9849H39.7936Z" fill="black"/>
<path d="M44.9331 18.4688H43.4513V22.5465H42.7629V18.4688H41.2773V17.8926H44.9331V18.4688Z" fill="black"/>
<path d="M47.0169 17.5811C47.1111 17.7389 47.1763 17.904 47.2089 18.0802C47.2415 18.2527 47.2451 18.4252 47.2198 18.5941C47.1944 18.7629 47.1364 18.928 47.0495 19.0822C46.9625 19.24 46.8466 19.3795 46.7053 19.5006L46.5096 19.3758C46.4734 19.3538 46.4553 19.3244 46.4625 19.2914C46.4698 19.2584 46.4806 19.2327 46.4987 19.2107C46.5531 19.1446 46.6002 19.0638 46.64 18.9684C46.6799 18.873 46.7053 18.7666 46.7198 18.6528C46.7342 18.539 46.727 18.4215 46.7053 18.3004C46.6835 18.1793 46.6364 18.0619 46.5676 17.9444C46.5386 17.893 46.5277 17.849 46.5422 17.8123C46.5567 17.7719 46.5821 17.7462 46.6256 17.7279L47.0169 17.5811Z" fill="black"/>
<path d="M51.6297 18.6532C51.608 18.6899 51.5862 18.7156 51.5609 18.7339C51.5355 18.7523 51.5065 18.7596 51.4703 18.7596C51.4304 18.7596 51.3869 18.7413 51.3362 18.7046C51.2855 18.6679 51.2239 18.6275 51.1514 18.5835C51.0754 18.5394 50.9884 18.499 50.8833 18.4623C50.7782 18.4256 50.6551 18.4073 50.5101 18.4073C50.3725 18.4073 50.2529 18.4256 50.1514 18.4623C50.05 18.499 49.963 18.5468 49.8942 18.6092C49.8254 18.6715 49.771 18.7413 49.7384 18.8257C49.7022 18.9101 49.684 18.9982 49.684 19.0973C49.684 19.2221 49.7167 19.3249 49.7782 19.4093C49.8435 19.49 49.9268 19.5634 50.0282 19.6185C50.1333 19.6772 50.2493 19.7286 50.3833 19.769C50.5138 19.813 50.6514 19.8571 50.7891 19.9048C50.9268 19.9525 51.0645 20.0039 51.1949 20.0663C51.3254 20.1287 51.4449 20.2021 51.55 20.2938C51.6551 20.3856 51.7384 20.4994 51.8 20.6315C51.8652 20.7636 51.8942 20.9288 51.8942 21.1196C51.8942 21.3252 51.858 21.516 51.7891 21.6959C51.7203 21.8757 51.6152 22.0335 51.4812 22.1657C51.3471 22.2978 51.1804 22.4042 50.9848 22.4813C50.7891 22.5584 50.5681 22.5951 50.3181 22.5951C50.1696 22.5951 50.0246 22.5804 49.8833 22.551C49.742 22.5217 49.608 22.4813 49.4848 22.4263C49.358 22.3749 49.242 22.3088 49.1333 22.2354C49.0246 22.162 48.9268 22.0776 48.8398 21.9858L49.0391 21.6555C49.0572 21.6298 49.0826 21.6078 49.108 21.5894C49.1333 21.5711 49.1659 21.5637 49.2022 21.5637C49.2493 21.5637 49.3 21.5858 49.358 21.6335C49.4159 21.6812 49.492 21.7326 49.579 21.7913C49.6659 21.85 49.771 21.9014 49.8942 21.9491C50.0174 21.9968 50.1659 22.0189 50.3398 22.0189C50.4811 22.0189 50.6116 22.0005 50.7239 21.9638C50.8362 21.9271 50.9304 21.872 51.0065 21.8023C51.0826 21.7326 51.1442 21.6482 51.184 21.5491C51.2239 21.45 51.2456 21.3398 51.2456 21.2187C51.2456 21.0829 51.213 20.9728 51.1514 20.8847C51.0898 20.7966 51.0065 20.7269 50.9014 20.6682C50.7964 20.6095 50.6804 20.5617 50.5464 20.5177C50.4159 20.4773 50.2782 20.4333 50.1406 20.3892C50.0029 20.3452 49.8652 20.2938 49.7348 20.2351C49.6043 20.1764 49.4848 20.0993 49.3797 20.0075C49.2746 19.9121 49.1913 19.7947 49.1297 19.6552C49.0681 19.512 49.0355 19.3395 49.0355 19.1303C49.0355 18.9652 49.0681 18.8037 49.1333 18.6459C49.1985 18.4917 49.2927 18.3522 49.4159 18.2311C49.5391 18.11 49.6949 18.0146 49.8761 17.9412C50.0572 17.8678 50.2674 17.8311 50.4993 17.8311C50.7601 17.8311 51.0029 17.8714 51.2203 17.9558C51.4413 18.0403 51.6297 18.1577 51.7927 18.3155L51.6297 18.6532Z" fill="black"/>
<path d="M59.5972 18.4688H58.1153V22.5465H57.4269V18.4688H55.9414V17.8926H59.5972V18.4688Z" fill="black"/>
<path d="M64.8753 22.5465H64.2593C64.1362 22.5465 64.0456 22.4988 63.9912 22.3997L62.8391 20.7848C62.8028 20.7297 62.763 20.693 62.7195 20.671C62.676 20.649 62.6108 20.638 62.5238 20.638H62.0709V22.5465H61.3789V17.8926H62.7231C63.0238 17.8926 63.2847 17.9219 63.5021 17.9843C63.7195 18.0467 63.9006 18.1348 64.0419 18.2486C64.1833 18.3624 64.2883 18.4982 64.3572 18.6597C64.426 18.8212 64.4586 18.9973 64.4586 19.1992C64.4586 19.3607 64.4333 19.5148 64.3825 19.658C64.3318 19.8011 64.2593 19.9296 64.1651 20.0434C64.0673 20.1571 63.9514 20.2562 63.8137 20.337C63.676 20.4177 63.5166 20.4801 63.3427 20.5242C63.4296 20.5756 63.5021 20.649 63.5673 20.7407L64.8753 22.5465ZM62.7014 20.1351C62.8789 20.1351 63.0347 20.1131 63.1688 20.0691C63.3028 20.025 63.4188 19.9663 63.5093 19.8855C63.5999 19.8048 63.6688 19.713 63.7122 19.6029C63.7593 19.4928 63.7811 19.3717 63.7811 19.2432C63.7811 18.9753 63.6941 18.7734 63.5166 18.6376C63.339 18.5018 63.0746 18.4321 62.7231 18.4321H62.0709V20.1351H62.7014Z" fill="black"/>
<path d="M70.429 22.5465H69.8963C69.8347 22.5465 69.7876 22.5318 69.7478 22.5025C69.7079 22.4731 69.679 22.4327 69.6645 22.385L69.2514 21.3059H67.1971L66.784 22.385C66.7695 22.4254 66.7405 22.4621 66.7007 22.4951C66.6608 22.5281 66.6101 22.5465 66.5521 22.5465H66.0195L67.8746 17.8926H68.5739L70.429 22.5465ZM69.063 20.8141L68.371 19.0083C68.3203 18.8836 68.2731 18.7294 68.2224 18.5422C68.1971 18.634 68.1753 18.7221 68.15 18.8028C68.1246 18.8836 68.0992 18.9533 68.0775 19.0157L67.3891 20.8141H69.063Z" fill="black"/>
<path d="M75.9357 17.8933V22.5472H75.5843C75.5299 22.5472 75.4865 22.5362 75.4502 22.5179C75.414 22.4995 75.3778 22.4665 75.3415 22.4225L72.7075 19.0238C72.7111 19.0825 72.7147 19.1375 72.7184 19.1963C72.722 19.2513 72.722 19.3064 72.722 19.3541V22.5472H72.1133V17.8933H72.472C72.5336 17.8933 72.577 17.9007 72.6097 17.9153C72.6386 17.93 72.6749 17.9631 72.7111 18.0108L75.3488 21.4131C75.3415 21.3507 75.3379 21.2883 75.3343 21.2296C75.3307 21.1709 75.3307 21.1158 75.3307 21.0608V17.8896H75.9357V17.8933Z" fill="black"/>
<path d="M80.6063 18.6532C80.5845 18.6899 80.5628 18.7156 80.5374 18.7339C80.5121 18.7523 80.4831 18.7596 80.4468 18.7596C80.407 18.7596 80.3635 18.7413 80.3128 18.7046C80.2621 18.6679 80.2005 18.6275 80.128 18.5835C80.0519 18.5394 79.965 18.499 79.8599 18.4623C79.7548 18.4256 79.6316 18.4073 79.4867 18.4073C79.349 18.4073 79.2294 18.4256 79.128 18.4623C79.0265 18.499 78.9396 18.5468 78.8708 18.6092C78.8019 18.6715 78.7476 18.7413 78.715 18.8257C78.6787 18.9101 78.6606 18.9982 78.6606 19.0973C78.6606 19.2221 78.6932 19.3249 78.7548 19.4093C78.82 19.49 78.9034 19.5634 79.0048 19.6185C79.1099 19.6772 79.2258 19.7286 79.3599 19.769C79.4903 19.813 79.628 19.8571 79.7657 19.9048C79.9034 19.9525 80.041 20.0039 80.1715 20.0663C80.3019 20.1287 80.4215 20.2021 80.5266 20.2938C80.6316 20.3856 80.715 20.4994 80.7766 20.6315C80.8418 20.7636 80.8708 20.9288 80.8708 21.1196C80.8708 21.3252 80.8345 21.516 80.7657 21.6959C80.6968 21.8757 80.5918 22.0335 80.4577 22.1657C80.3237 22.2978 80.157 22.4042 79.9613 22.4813C79.7657 22.5584 79.5447 22.5951 79.2947 22.5951C79.1461 22.5951 79.0012 22.5804 78.8599 22.551C78.7186 22.5217 78.5845 22.4813 78.4613 22.4263C78.3345 22.3749 78.2186 22.3088 78.1099 22.2354C78.0012 22.162 77.9034 22.0776 77.8164 21.9858L78.0157 21.6555C78.0338 21.6298 78.0592 21.6078 78.0845 21.5894C78.1099 21.5711 78.1425 21.5637 78.1787 21.5637C78.2258 21.5637 78.2766 21.5858 78.3345 21.6335C78.3925 21.6812 78.4686 21.7326 78.5555 21.7913C78.6425 21.85 78.7476 21.9014 78.8708 21.9491C78.9939 21.9968 79.1425 22.0189 79.3164 22.0189C79.4577 22.0189 79.5881 22.0005 79.7005 21.9638C79.8128 21.9271 79.907 21.872 79.9831 21.8023C80.0592 21.7326 80.1208 21.6482 80.1606 21.5491C80.2005 21.45 80.2222 21.3398 80.2222 21.2187C80.2222 21.0829 80.1896 20.9728 80.128 20.8847C80.0664 20.7966 79.9831 20.7269 79.878 20.6682C79.7729 20.6095 79.657 20.5617 79.5229 20.5177C79.3925 20.4773 79.2548 20.4333 79.1171 20.3892C78.9794 20.3452 78.8418 20.2938 78.7113 20.2351C78.5809 20.1764 78.4613 20.0993 78.3563 20.0075C78.2512 19.9121 78.1679 19.7947 78.1063 19.6552C78.0447 19.512 78.0121 19.3395 78.0121 19.1303C78.0121 18.9652 78.0447 18.8037 78.1099 18.6459C78.1751 18.4917 78.2693 18.3522 78.3925 18.2311C78.5157 18.11 78.6715 18.0146 78.8526 17.9412C79.0338 17.8678 79.2439 17.8311 79.4758 17.8311C79.7367 17.8311 79.9795 17.8714 80.1968 17.9558C80.4179 18.0403 80.6063 18.1577 80.7693 18.3155L80.6063 18.6532Z" fill="black"/>
<path d="M83.5316 18.4541V20.014H85.4012V20.5756H83.5316V22.5502H82.8359V17.8926H85.7236V18.4541H83.5316Z" fill="black"/>
<path d="M91.9234 20.2194C91.9234 20.5681 91.8691 20.8874 91.7567 21.1773C91.6444 21.4673 91.4886 21.7169 91.2857 21.9298C91.0828 22.139 90.8401 22.3041 90.5538 22.4216C90.2712 22.539 89.956 22.5977 89.6082 22.5977C89.264 22.5977 88.9488 22.539 88.6662 22.4216C88.3799 22.3041 88.1372 22.1426 87.9343 21.9298C87.7314 21.7205 87.5756 21.4673 87.4633 21.1773C87.3509 20.8874 87.293 20.5681 87.293 20.2194C87.293 19.8744 87.3473 19.5551 87.4633 19.2651C87.5756 18.9752 87.735 18.7219 87.9343 18.5127C88.1372 18.3035 88.3799 18.1383 88.6662 18.0209C88.9524 17.9035 89.264 17.8447 89.6082 17.8447C89.956 17.8447 90.2676 17.9035 90.5538 18.0209C90.8364 18.1383 91.0792 18.3035 91.2857 18.5127C91.4886 18.7219 91.648 18.9752 91.7567 19.2651C91.8654 19.5551 91.9234 19.8744 91.9234 20.2194ZM91.2133 20.2194C91.2133 19.9441 91.177 19.6946 91.1009 19.4743C91.0249 19.2541 90.9162 19.0669 90.7785 18.9128C90.6372 18.7586 90.4705 18.6412 90.2712 18.5604C90.072 18.4797 89.8509 18.4356 89.6082 18.4356C89.3654 18.4356 89.1408 18.476 88.9451 18.5604C88.7459 18.6412 88.5792 18.7586 88.4379 18.9128C88.2966 19.0669 88.1879 19.2541 88.1118 19.4743C88.0357 19.6946 87.9995 19.9441 87.9995 20.2194C87.9995 20.4983 88.0357 20.7479 88.1118 20.9681C88.1879 21.1884 88.2966 21.3755 88.4379 21.526C88.5792 21.6802 88.7495 21.7976 88.9451 21.8784C89.1444 21.9591 89.3654 21.9995 89.6082 21.9995C89.8509 21.9995 90.0756 21.9591 90.2712 21.8784C90.4705 21.7976 90.6372 21.6802 90.7785 21.526C90.9198 21.3719 91.0249 21.1847 91.1009 20.9681C91.177 20.7479 91.2133 20.4983 91.2133 20.2194Z" fill="black"/>
<path d="M97.3909 22.5475H96.775C96.6518 22.5475 96.5612 22.4998 96.5068 22.4007L95.3547 20.7857C95.3184 20.7307 95.2786 20.694 95.2351 20.672C95.1916 20.6499 95.1264 20.6389 95.0395 20.6389H94.5866V22.5475H93.8945V17.8936H95.2387C95.5395 17.8936 95.8003 17.9229 96.0177 17.9853C96.2351 18.0477 96.4163 18.1358 96.5576 18.2496C96.6989 18.3634 96.804 18.4992 96.8728 18.6606C96.9416 18.8221 96.9742 18.9983 96.9742 19.2002C96.9742 19.3617 96.9489 19.5158 96.8982 19.659C96.8474 19.8021 96.775 19.9306 96.6808 20.0443C96.5829 20.1581 96.467 20.2572 96.3293 20.338C96.1916 20.4187 96.0322 20.4811 95.8583 20.5251C95.9452 20.5765 96.0177 20.6499 96.0829 20.7417L97.3909 22.5475ZM95.217 20.1361C95.3945 20.1361 95.5503 20.1141 95.6844 20.07C95.8184 20.026 95.9344 19.9673 96.025 19.8865C96.1155 19.8058 96.1844 19.714 96.2279 19.6039C96.275 19.4938 96.2967 19.3727 96.2967 19.2442C96.2967 18.9763 96.2097 18.7744 96.0322 18.6386C95.8547 18.5028 95.5902 18.4331 95.2387 18.4331H94.5866V20.1361H95.217Z" fill="black"/>
<path d="M104.007 17.8923V22.5463H103.402V19.2357C103.402 19.1843 103.402 19.1329 103.406 19.0778C103.41 19.0228 103.413 18.9641 103.417 18.9053L101.866 21.7461C101.812 21.8526 101.728 21.904 101.616 21.904H101.518C101.406 21.904 101.323 21.8526 101.272 21.7461L99.6921 18.8943C99.7066 19.0154 99.7103 19.1292 99.7103 19.2357V22.5463H99.1016V17.8923H99.616C99.6776 17.8923 99.7247 17.8997 99.7574 17.9107C99.79 17.9217 99.8226 17.9547 99.8516 18.0098L101.41 20.7955C101.439 20.8506 101.467 20.9093 101.493 20.9754C101.518 21.0378 101.544 21.1002 101.569 21.1626C101.616 21.0341 101.667 20.913 101.728 20.7919L103.257 18.0061C103.286 17.9511 103.315 17.918 103.352 17.907C103.384 17.896 103.431 17.8887 103.493 17.8887H104.007V17.8923Z" fill="black"/>
<path d="M112 18.4698H110.518V22.5475H109.829V18.4698H108.344V17.8936H112V18.4698Z" fill="black"/>
<path d="M117.923 20.2194C117.923 20.5681 117.869 20.8874 117.757 21.1773C117.644 21.4673 117.489 21.7169 117.286 21.9298C117.083 22.139 116.84 22.3041 116.554 22.4216C116.271 22.539 115.956 22.5977 115.608 22.5977C115.264 22.5977 114.949 22.539 114.666 22.4216C114.38 22.3041 114.137 22.1426 113.934 21.9298C113.731 21.7205 113.576 21.4673 113.463 21.1773C113.351 20.8874 113.293 20.5681 113.293 20.2194C113.293 19.8744 113.347 19.5551 113.463 19.2651C113.576 18.9752 113.735 18.7219 113.934 18.5127C114.137 18.3035 114.38 18.1383 114.666 18.0209C114.952 17.9035 115.264 17.8447 115.608 17.8447C115.956 17.8447 116.268 17.9035 116.554 18.0209C116.836 18.1383 117.079 18.3035 117.286 18.5127C117.489 18.7219 117.648 18.9752 117.757 19.2651C117.869 19.5551 117.923 19.8744 117.923 20.2194ZM117.217 20.2194C117.217 19.9441 117.181 19.6946 117.105 19.4743C117.028 19.2541 116.92 19.0669 116.782 18.9128C116.641 18.7586 116.474 18.6412 116.275 18.5604C116.076 18.4797 115.855 18.4356 115.612 18.4356C115.369 18.4356 115.144 18.476 114.949 18.5604C114.749 18.6412 114.583 18.7586 114.442 18.9128C114.3 19.0669 114.192 19.2541 114.115 19.4743C114.039 19.6946 114.003 19.9441 114.003 20.2194C114.003 20.4983 114.039 20.7479 114.115 20.9681C114.192 21.1884 114.3 21.3755 114.442 21.526C114.583 21.6802 114.753 21.7976 114.949 21.8784C115.148 21.9591 115.369 21.9995 115.612 21.9995C115.855 21.9995 116.079 21.9591 116.275 21.8784C116.474 21.7976 116.641 21.6802 116.782 21.526C116.923 21.3719 117.028 21.1847 117.105 20.9681C117.181 20.7479 117.217 20.4983 117.217 20.2194Z" fill="black"/>
<path d="M123.711 20.2825V22.0957C123.476 22.2645 123.226 22.3893 122.958 22.4737C122.693 22.5581 122.4 22.5985 122.088 22.5985C121.711 22.5985 121.371 22.5398 121.066 22.4223C120.762 22.3049 120.505 22.1434 120.287 21.9342C120.074 21.725 119.907 21.4754 119.791 21.1818C119.675 20.8918 119.617 20.5688 119.617 20.2201C119.617 19.8678 119.672 19.5448 119.784 19.2512C119.896 18.9576 120.056 18.708 120.262 18.4988C120.469 18.2896 120.722 18.1281 121.016 18.0143C121.313 17.9005 121.643 17.8418 122.012 17.8418C122.197 17.8418 122.371 17.8565 122.53 17.8822C122.69 17.9115 122.838 17.9519 122.972 18.0033C123.11 18.0547 123.233 18.1171 123.349 18.1905C123.465 18.2639 123.574 18.3446 123.672 18.4364L123.472 18.7484C123.443 18.7997 123.403 18.8291 123.353 18.8438C123.302 18.8585 123.248 18.8438 123.19 18.8071C123.132 18.774 123.07 18.7373 123.001 18.6933C122.932 18.6493 122.853 18.6089 122.758 18.5722C122.664 18.5355 122.556 18.5024 122.429 18.4768C122.302 18.4511 122.153 18.4364 121.983 18.4364C121.726 18.4364 121.498 18.4768 121.291 18.5612C121.085 18.6456 120.911 18.763 120.766 18.9209C120.621 19.075 120.508 19.2622 120.432 19.4824C120.356 19.7026 120.316 19.9485 120.316 20.2201C120.316 20.5064 120.356 20.7597 120.44 20.9872C120.523 21.2148 120.639 21.4056 120.787 21.5598C120.94 21.7176 121.121 21.8351 121.335 21.9195C121.548 22.0002 121.791 22.0443 122.056 22.0443C122.161 22.0443 122.255 22.0369 122.345 22.0259C122.436 22.0149 122.519 21.9966 122.603 21.9745C122.686 21.9525 122.766 21.9268 122.842 21.8938C122.918 21.8608 122.994 21.8241 123.07 21.7874V20.8111H122.382C122.338 20.8111 122.302 20.7964 122.277 20.7707C122.251 20.745 122.237 20.712 122.237 20.6753V20.2825H123.711Z" fill="black"/>
<path d="M128.645 21.9849L128.642 22.5465H125.754V17.8926H128.642V18.4541H126.446V19.9296H128.21V20.4691H126.446V21.9849H128.645Z" fill="black"/>
<path d="M133.785 18.4688H132.303V22.5465H131.614V18.4688H130.129V17.8926H133.785V18.4688Z" fill="black"/>
<path d="M139.385 17.8926V22.5465H138.693V20.4508H136.262V22.5465H135.566V17.8926H136.262V19.9479H138.693V17.8926H139.385Z" fill="black"/>
<path d="M144.54 21.9849L144.536 22.5465H141.648V17.8926H144.536V18.4541H142.34V19.9296H144.105V20.4691H142.34V21.9849H144.54Z" fill="black"/>
<path d="M150 22.5465H149.384C149.261 22.5465 149.171 22.4988 149.116 22.3997L147.964 20.7848C147.928 20.7297 147.888 20.693 147.844 20.671C147.801 20.649 147.736 20.638 147.649 20.638H147.196V22.5465H146.504V17.8926H147.848C148.149 17.8926 148.41 17.9219 148.627 17.9843C148.844 18.0467 149.026 18.1348 149.167 18.2486C149.308 18.3624 149.413 18.4982 149.482 18.6597C149.551 18.8212 149.584 18.9973 149.584 19.1992C149.584 19.3607 149.558 19.5148 149.508 19.658C149.457 19.8011 149.384 19.9296 149.29 20.0434C149.192 20.1571 149.076 20.2562 148.939 20.337C148.801 20.4177 148.642 20.4801 148.468 20.5242C148.555 20.5756 148.627 20.649 148.692 20.7407L150 22.5465ZM147.826 20.1351C148.004 20.1351 148.16 20.1131 148.294 20.0691C148.428 20.025 148.544 19.9663 148.634 19.8855C148.725 19.8048 148.794 19.713 148.837 19.6029C148.884 19.4928 148.906 19.3717 148.906 19.2432C148.906 18.9753 148.819 18.7734 148.642 18.6376C148.464 18.5018 148.2 18.4321 147.848 18.4321H147.196V20.1351H147.826Z" fill="black"/>
</g>
<defs>
<clipPath id="clip0_2208_41295">
<rect width="150" height="24" fill="white"/>
</clipPath>
</defs>
</svg>
