<?xml version="1.0" encoding="utf-8"?>
<!-- Generator: Adobe Illustrator 24.3.0, SVG Export Plug-In . SVG Version: 6.00 Build 0)  -->
<svg version="1.1" id="Layer_1" xmlns="http://www.w3.org/2000/svg" xmlns:xlink="http://www.w3.org/1999/xlink" x="0px" y="0px"
	 viewBox="0 0 255.4 255.2" style="enable-background:new 0 0 255.4 255.2;" xml:space="preserve">
<style type="text/css">
	.st0{fill:#FFFFFF;}
</style>
<g>
	<path class="st0" d="M170.1,160H12c-4.3,0-8.1-1.7-10.3-5.3c-2.1-3.6-2.1-7.8,0-11.5L80.8,6.1c2.1-3.6,6-5.9,10.2-5.9c0,0,0,0,0,0
		c4.2,0,8.1,2.3,10.2,5.9l37.4,63.3c3.3,5.6,1.4,12.9-4.2,16.2c-5.7,3.3-12.9,1.5-16.2-4.2L91.2,35.5L32.5,137.2h117.3l-10.3-19
		H85.6c-6.6,0-11.9-4.9-11.9-11.4S79,95.3,85.6,95.3h60.8c4.3,0,8.2,2.6,10.4,6.3l23.7,41.9c2.1,3.6,2,7.6-0.1,11.2
		C178.3,158.3,174.4,160,170.1,160z"/>
	<path class="st0" d="M164.2,255.1c-4.3,0-8.2-2.5-10.3-6.1l-37.4-65.3c-3.2-5.7-1.3-12.9,4.4-16.2c5.7-3.2,13-1.3,16.2,4.4
		l27.2,46.7l58.3-100.5H105.5l10.3,19h53.9c6.6,0,11.9,4.9,11.9,11.4s-5.3,11.4-11.9,11.4h-60.8c-4.3,0-8.2-1.7-10.4-5.4l-23.7-41.4
		c-2.1-3.6-2-8.3,0.1-11.9c2.1-3.6,6-6,10.2-6h158.1c4.3,0,8.2,2.5,10.3,6.2c2.1,3.7,2.1,8.3,0,12l-79,135.5
		C172.4,252.7,168.5,255.1,164.2,255.1z"/>
</g>
</svg>
