<?xml version="1.0" encoding="utf-8"?>
<!-- Generator: Adobe Illustrator 24.3.0, SVG Export Plug-In . SVG Version: 6.00 Build 0)  -->
<svg version="1.1" id="Layer_1" xmlns="http://www.w3.org/2000/svg" xmlns:xlink="http://www.w3.org/1999/xlink" x="0px" y="0px"
	 viewBox="0 0 600 600" style="enable-background:new 0 0 600 600;" xml:space="preserve">
<style type="text/css">
	.st0{fill:#FFFFFF;}
</style>
<g>
	<path class="st0" d="M232.7,333l-199,0c-4.3,0-8.6,0.7-12.6,2.3C7.9,340.5,0,353,0,366.2l0,199c0,4.3,0.7,8.6,2.3,12.6
		c5.3,13.2,17.7,21.1,31,21.1l199,0c4.3,0,8.6-0.6,12.6-2.2c13.2-5.3,21.2-17.7,21.2-31l0-199c0-4.3-0.7-8.6-2.3-12.6
		C258.3,340.8,245.9,333,232.7,333z M200,533H65.9V398.9H200V533z M566.8,1.1l-199,0c-4.3,0-8.6,0.7-12.6,2.3
		c-13.2,5.3-21.1,17.7-21.1,31l0,199c0,4.3,0.7,8.6,2.3,12.6c5.3,13.2,17.7,21.1,31,21.1l199,0c4.3,0,8.6-0.7,12.6-2.3
		c13.2-5.3,21.1-17.7,21.1-31l0-199c0-4.3-0.6-8.6-2.2-12.6C592.5,9.1,580,1.1,566.8,1.1z M534.1,201.1H400V67h134.1V201.1z
		 M565.4,433l-65.4,0l0-65.4c0-4.3-0.6-8.6-2.2-12.6c-5.3-13.1-17.6-20.9-30.7-20.9c-13.1,0-25.4,7.8-30.7,20.8
		c-1.6,4-2.3,8.3-2.3,12.6l0,65.5l-65.5,0c-4.3,0-8.6,0.7-12.6,2.3c-13,5.3-20.8,17.6-20.8,30.7c0,13.1,7.8,25.5,20.9,30.7
		c4,1.6,8.3,2.2,12.6,2.2l65.4,0l0,65.4c0,4.3,0.7,8.6,2.3,12.6c5.3,13,17.6,20.8,30.7,20.8c13.1,0,25.5-7.8,30.7-20.9
		c1.6-4,2.2-8.3,2.2-12.6l0-65.4l65.4,0c4.3,0,8.6-0.6,12.6-2.2c13.1-5.3,20.9-17.6,20.9-30.7c0-13.1-7.8-25.4-20.8-30.7
		C574.1,433.6,569.7,433,565.4,433z M232.7,1.1l-199,0c-4.3,0-8.6,0.7-12.6,2.3C7.9,8.7,0,21.1,0,34.4l0,199c0,4.3,0.7,8.6,2.3,12.6
		C7.6,259.1,20,267,33.2,267l199,0c4.3,0,8.6-0.7,12.6-2.3c13.2-5.3,21.1-17.7,21.1-31l0-199c0-4.3-0.7-8.6-2.3-12.6
		C258.3,9,245.9,1.1,232.7,1.1z M200,201.1H65.9V67H200V201.1z"/>
</g>
</svg>
