<?xml version="1.0" encoding="utf-8"?>
<!-- Generator: Adobe Illustrator 24.3.0, SVG Export Plug-In . SVG Version: 6.00 Build 0)  -->
<svg version="1.1" id="Layer_1" xmlns="http://www.w3.org/2000/svg" xmlns:xlink="http://www.w3.org/1999/xlink" x="0px" y="0px"
	 viewBox="0 0 600 600" style="enable-background:new 0 0 600 600;" xml:space="preserve">
<style type="text/css">
	.st0{fill-rule:evenodd;clip-rule:evenodd;fill:#FFFFFF;}
</style>
<g>
	<path class="st0" d="M0,50C0,22.4,19.2,0,42.9,0h514.3C580.8,0,600,22.4,600,50s-19.2,50-42.9,50H42.9C19.2,100,0,77.6,0,50z"/>
	<path class="st0" d="M0,300c0-27.6,19.2-50,42.9-50h514.3c23.7,0,42.9,22.4,42.9,50s-19.2,50-42.9,50H42.9C19.2,350,0,327.6,0,300z
		"/>
	<path class="st0" d="M257.1,550c0-27.6,19.2-50,42.9-50h257.1c23.7,0,42.9,22.4,42.9,50s-19.2,50-42.9,50H300
		C276.3,600,257.1,577.6,257.1,550z"/>
</g>
</svg>
