<?xml version="1.0" encoding="utf-8"?>
<!-- Generator: Adobe Illustrator 24.3.0, SVG Export Plug-In . SVG Version: 6.00 Build 0)  -->
<svg version="1.1" id="Layer_1" xmlns="http://www.w3.org/2000/svg" xmlns:xlink="http://www.w3.org/1999/xlink" x="0px" y="0px"
	 viewBox="0 0 600 644" style="enable-background:new 0 0 600 644;" xml:space="preserve">
<style type="text/css">
	.st0{fill:#FFFFFF;}
</style>
<g>
	<path class="st0" d="M594.3,172.5c-3.9-4.1-9.3-6.4-15-6.4H455.2v-20.5c0-80.1-64.9-145.1-145.1-145.1h-20.7
		c-80.1,0-145.1,64.9-145.1,145.1v20.5H20.8c-5.7,0-11.1,2.3-15,6.4c-3.9,4.1-6,9.6-5.7,15.3l18.9,396.4
		c1.6,33.3,28.9,59.3,62.2,59.3h437.8c33.3,0,60.6-26.1,62.2-59.3L600,187.8C600.2,182.1,598.2,176.6,594.3,172.5z M289.6,42.1h20.3
		c57.2,0,103.6,46.4,103.6,103.6v20.3H186v-20.3C186,88.5,232.3,42.1,289.6,42.1z M539.4,582.1c-0.5,11.1-9.7,19.8-20.8,19.8H79.9
		c-11.1,0-20.3-8.7-20.8-19.8L41.2,207.7h102.1v72.2c0,10.4,7.5,19.5,17.7,21c12.9,1.8,23.9-8.1,23.9-20.5v-72.6h228.6v72.2
		c0,10.4,7.5,19.5,17.7,21c12.9,1.8,23.9-8.1,23.9-20.5v-72.6h102.1L539.4,582.1z"/>
	<path class="st0" d="M176.1,356.7c-1.1-0.7-2.3-1.4-3.5-2c-1.3-0.5-2.6-0.9-3.9-1.1c-6.7-1.3-13.9,0.8-18.6,5.7
		c-3.9,3.8-6.1,9.1-6.1,14.6c0,2.8,0.5,5.4,1.5,8c1,2.5,2.6,4.8,4.6,6.6c1.9,2,4.1,3.5,6.6,4.6c2.6,1,5.2,1.6,8,1.6
		c5.5,0,10.8-2.2,14.6-6.1c2-1.9,3.5-4.1,4.6-6.6c1-2.6,1.6-5.2,1.6-8c0-5.5-2.2-10.8-6.1-14.6C178.3,358.2,177.2,357.4,176.1,356.7
		z"/>
	<path class="st0" d="M453.2,365.9c-0.5-1.2-1.2-2.4-2-3.5c-0.7-1.1-1.6-2.2-2.6-3.1c-4.8-4.9-11.9-7-18.7-5.7
		c-1.3,0.2-2.7,0.6-3.9,1.1c-1.2,0.5-2.4,1.2-3.5,2c-1.1,0.7-2.2,1.6-3.1,2.6c-1,0.9-1.9,2-2.6,3.1c-0.8,1.1-1.4,2.3-2,3.5
		c-0.5,1.3-0.9,2.6-1.1,3.9c-0.3,1.4-0.4,2.7-0.4,4c0,2.8,0.5,5.4,1.5,8c1,2.5,2.6,4.8,4.6,6.6c0.9,1,2,1.9,3.1,2.6
		c1.1,0.8,2.3,1.4,3.5,2c1.2,0.5,2.6,0.9,3.9,1.1c1.4,0.3,2.7,0.4,4,0.4s2.7-0.1,4-0.4c1.3-0.2,2.7-0.6,3.9-1.1
		c1.1-0.5,2.4-1.1,3.5-2c1.1-0.7,2.2-1.6,3.1-2.6c2-1.9,3.5-4.1,4.6-6.6c1-2.6,1.6-5.2,1.6-8c0-1.3-0.2-2.7-0.4-4
		C454,368.5,453.7,367.3,453.2,365.9z"/>
	<path class="st0" d="M372.3,446.4h-72.7c-10,0-18.8,6.9-20.7,16.6c-2.6,13.3,7.5,25,20.4,25H347c-8,18.4-26.4,31.2-47.7,31.2
		c-28.6,0-52-23.2-52.1-51.9c0-10.1-7.2-19.1-17.2-20.7c-13.1-2.2-24.4,7.8-24.4,20.5c0,51.7,42,93.7,93.7,93.7
		c51.7,0,93.7-42.1,93.7-93.8C393,455.8,383.7,446.4,372.3,446.4z"/>
</g>
</svg>
