<?xml version="1.0" encoding="utf-8"?>
<!-- Generator: Adobe Illustrator 24.3.0, SVG Export Plug-In . SVG Version: 6.00 Build 0)  -->
<svg version="1.1" id="Layer_1" xmlns="http://www.w3.org/2000/svg" xmlns:xlink="http://www.w3.org/1999/xlink" x="0px" y="0px"
	 viewBox="0 0 500 666" style="enable-background:new 0 0 500 666;" xml:space="preserve">
<style type="text/css">
	.st0{fill:#A62632;}
</style>
<g>
	<path class="st0" d="M0,30.9C0,13.7,14-0.3,31.2-0.3h437.5c17.3,0,31.2,14,31.2,31.2s-13.9,31.3-31.2,31.3h-10.4v24.7
		c0,52.5-22,101.7-57.9,140L294.1,333l106.2,106.1c35.9,37.1,57.9,87.5,57.9,140v24.7h9.8c16.5,0,30.7,12.6,31.8,29.1
		c1.2,18.3-13.1,33.4-31.2,33.4H31.2C14,666.3,0,652.4,0,635.1s14-31.2,31.2-31.2h10.4v-24.7c0-52.5,20.8-102.9,58-140L205.9,333
		L99.6,226.9c-37.1-38.3-58-87.5-58-140V62.2H31.2C14,62.2,0,48.2,0,30.9L0,30.9z M129.5,499.7h240.1c-4.2-5.7-8.9-11.2-13.9-16.3
		L249.6,377.1L143.5,483.4C138.4,488.5,132.5,493.9,129.5,499.7L129.5,499.7z M370.1,166.3c15.5-22.9,25.8-50.7,25.8-79.5V62.2
		H104.2v24.7c0,28.7,9.1,56.5,25.8,79.5H370.1z"/>
</g>
</svg>
