<?xml version="1.0" encoding="utf-8"?>
<!-- Generator: Adobe Illustrator 24.3.0, SVG Export Plug-In . SVG Version: 6.00 Build 0)  -->
<svg version="1.1" id="Layer_1" xmlns="http://www.w3.org/2000/svg" xmlns:xlink="http://www.w3.org/1999/xlink" x="0px" y="0px"
	 viewBox="0 0 600 600" style="enable-background:new 0 0 600 600;" xml:space="preserve">
<style type="text/css">
	.st0{fill:#FFFFFF;}
</style>
<g>
	<path class="st0" d="M432,509.8c23.2,0,42-18.8,42-42c0-23.2-18.8-42-42-42c-23.2,0-42,18.8-42,42C390,491,408.8,509.8,432,509.8z"
		/>
	<path class="st0" d="M595.3,456.9c-13-33.1-35.4-61.6-64.4-82c-29-20.5-63.4-31.9-98.9-33c-35.5,1.1-69.9,12.6-98.9,33
		c-29,20.5-51.4,49-64.4,82l-4.7,11l4.7,11c13,33.1,35.4,61.6,64.4,82c29,20.5,63.4,31.9,98.9,33c35.5-1.1,69.9-12.6,98.9-33
		c29-20.5,51.4-49,64.4-82l4.7-11L595.3,456.9z M432,551.8c-16.6,0-32.9-4.9-46.7-14.2c-13.8-9.2-24.6-22.4-30.9-37.7
		c-6.4-15.4-8-32.2-4.8-48.5c3.2-16.3,11.2-31.3,23-43c11.7-11.7,26.7-19.8,43-23c16.3-3.2,33.2-1.6,48.5,4.8
		c15.4,6.4,28.5,17.1,37.7,30.9c9.2,13.8,14.2,30.1,14.2,46.7c0,22.3-8.9,43.6-24.6,59.4C475.6,542.9,454.2,551.8,432,551.8z"/>
	<path class="st0" d="M230.5,381.7c-17.2-12.9-30.8-30-39.5-49.6c-8.7-19.6-12.3-41.2-10.4-62.5c1.9-21.4,9.3-41.9,21.4-59.7
		c12.1-17.7,28.5-32.1,47.8-41.7c19.2-9.6,40.6-14.1,62-13.2c21.5,1,42.3,7.4,60.6,18.7c18.3,11.3,33.4,27.1,43.8,45.8
		c10.5,18.8,16,39.9,16,61.4h-42c0-14.3-3.7-28.4-10.6-40.9c-7-12.5-17-23-29.2-30.6c-12.2-7.5-26.1-11.8-40.4-12.5
		c-14.3-0.6-28.5,2.4-41.3,8.8c-12.8,6.4-23.8,16-31.8,27.8c-8.1,11.8-13,25.5-14.3,39.8c-1.3,14.3,1.1,28.6,6.9,41.7
		c5.8,13.1,14.9,24.5,26.3,33.1L230.5,381.7z"/>
	<path class="st0" d="M563.8,194.7l-49.3-85.4c-4.8-8.4-12.4-14.8-21.4-18.2c-9-3.4-19-3.6-28.1-0.5L414,107.8
		c-8.8-5.9-17.9-11.2-27.4-15.8l-10.5-52.6c-1.9-9.5-7-18-14.5-24.1c-7.5-6.1-16.8-9.5-26.5-9.5h-99.4c-9.7,0-19.1,3.4-26.7,9.5
		c-7.5,6.2-12.7,14.7-14.6,24.3l-10.6,52.9c-9.7,4.6-19,9.9-27.9,15.8l-50.9-17.2c-9.2-3.1-19.2-3-28.3,0.5
		c-9.1,3.4-16.7,9.9-21.6,18.3L5.6,195.8c-4.9,8.4-6.6,18.3-5.1,27.8c1.6,9.6,6.4,18.3,13.7,24.8l40.6,35.7
		c-0.4,5.3-0.8,10.5-0.8,15.9c0,5.4,0.2,10.8,0.6,16.1l-40.4,35.5C7,358,2.1,366.7,0.6,376.3c-1.6,9.6,0.2,19.4,5.1,27.8l49.6,85.9
		c4.9,8.4,12.5,14.9,21.6,18.3c9.1,3.4,19.1,3.6,28.3,0.5l51.2-17.3c8.8,5.9,18,11.3,27.6,15.9l10.6,52.9
		c1.9,9.5,7.1,18.1,14.6,24.3c7.5,6.2,16.9,9.5,26.7,9.5h28.6v-42.7h-28.6L220.8,477c-20.6-7.7-39.8-18.8-56.6-33l-72.4,24.5
		l-49.6-85.9l57.2-50.3c-3.9-21.7-4-44-0.1-65.7l-57.1-50.2l49.6-85.9l72,24.3c16.9-14.2,36.2-25.3,57-32.9l14.9-74.6h99.4
		l14.8,74.2c20.5,7.6,39.6,18.7,56.3,32.8l72-24.4l49.3,85.4l-58.5,51.2l27.5,31.4l58.5-51.3c7.3-6.4,12.1-15.1,13.7-24.6
		C570.4,212.9,568.6,203.1,563.8,194.7z"/>
</g>
</svg>
