<?xml version="1.0" encoding="utf-8"?>
<!-- Generator: Adobe Illustrator 24.3.0, SVG Export Plug-In . SVG Version: 6.00 Build 0)  -->
<svg version="1.1" id="Layer_1" xmlns="http://www.w3.org/2000/svg" xmlns:xlink="http://www.w3.org/1999/xlink" x="0px" y="0px"
	 viewBox="0 0 600 600" style="enable-background:new 0 0 600 600;" xml:space="preserve">
<style type="text/css">
	.st0{fill:#A62632;}
</style>
<g>
	<g>
		<path class="st0" d="M370.6,128.1C370.6,57.5,310.4,0,236.6,0c-74,0-134.2,57.5-134.2,128.1c0,70.5,60.2,127.9,134.2,127.9
			C310.4,256.1,370.6,198.6,370.6,128.1z"/>
		<path class="st0" d="M0,499.5l0,32.7C0,569.7,31.8,600,71,600h324.4c39,0,71-30.5,71-67.7v-38.7c0-135.1-126.7-242.4-272.6-219.5
			C80.4,291.9,0,389.9,0,499.5z"/>
		<path class="st0" d="M548.1,148.1L472.8,220l-27.7-26.4c-11.9-11.3-31.1-11.3-43,0c-11.9,11.3-11.9,29.7,0,41.1l49.2,46.9
			c5.9,5.7,13.7,8.5,21.5,8.5c7.8,0,15.6-2.8,21.5-8.5l96.8-92.4c11.9-11.3,11.9-29.7,0-41.1C579.2,136.7,560,136.7,548.1,148.1z"/>
	</g>
</g>
</svg>
