<svg width="24" height="24" viewBox="0 0 24 24" fill="none" xmlns="http://www.w3.org/2000/svg">
<path d="M15.9994 15.0463H1.11747C0.71631 15.0463 0.351366 14.8903 0.150785 14.5505C-0.049795 14.2078 -0.049795 13.815 0.147999 13.4723L7.58897 0.557168C7.78398 0.21451 8.15171 0 8.55287 0C8.55566 0 8.55566 0 8.55566 0C8.95125 0 9.31898 0.220082 9.51956 0.559954L13.0436 6.51887C13.3557 7.04818 13.1774 7.73071 12.6481 8.04272C12.116 8.35195 11.4334 8.17923 11.1186 7.64992L8.56959 3.32629L3.04249 12.8957H14.0855L13.1161 11.1044H8.04028C7.42182 11.1044 6.92037 10.6447 6.92037 10.029C6.92037 9.41336 7.42182 8.95369 8.04028 8.95369H13.7652C14.1691 8.95369 14.5396 9.19606 14.7402 9.54708L16.9745 13.489C17.1695 13.8317 17.1667 14.2022 16.9661 14.5449C16.7627 14.8875 16.395 15.0463 15.9994 15.0463Z" fill="white"/>
<path d="M15.443 23.9999C15.0391 23.9999 14.6686 23.7687 14.4736 23.4232L10.9495 17.2749C10.6458 16.74 10.8297 16.0602 11.3673 15.7538C11.905 15.4529 12.5875 15.6312 12.8912 16.1661L15.4514 20.5649L20.9423 11.107H9.91592L10.8854 12.8983H15.9612C16.5796 12.8983 17.0811 13.358 17.0811 13.9736C17.0811 14.5893 16.5796 15.049 15.9612 15.049H10.2363C9.83235 15.049 9.46183 14.8902 9.26125 14.542L7.02701 10.6446C6.832 10.3019 6.83479 9.86731 7.03537 9.52465C7.23595 9.182 7.60089 8.96191 7.99927 8.96191H22.884C23.2852 8.96191 23.6557 9.2015 23.8507 9.54694C24.0513 9.89239 24.0513 10.327 23.8479 10.6724L16.4097 23.4232C16.2119 23.7659 15.8442 23.9999 15.443 23.9999Z" fill="white"/>
</svg>
