<svg width="24" height="21" viewBox="0 0 24 21" fill="none" xmlns="http://www.w3.org/2000/svg">
<g clip-path="url(#clip0_275_1001)">
<path d="M23.9984 12.964C15.9868 12.964 8.0096 12.964 0 12.964C0 12.8824 0 12.808 0 12.7336C0 8.70235 0 4.67115 0 0.639953C0 0.305153 0.0728 0.232353 0.4084 0.232353C8.1032 0.232353 15.7976 0.233153 23.4924 0.229553C23.8616 0.229553 23.9936 0.246353 23.996 0.739153C24.0024 1.97115 23.9984 3.20315 23.9984 4.43475C23.9984 7.18875 23.9984 9.94275 23.998 12.6972C23.9984 12.78 23.9984 12.862 23.9984 12.964ZM8.8616 5.77915C8.0724 6.85075 7.29 7.91555 6.5016 8.97555C6.4732 9.01395 6.3812 9.02435 6.3228 9.01715C6.1576 8.99595 5.9952 8.93595 5.8308 8.93195C5.1424 8.91595 4.6348 9.23555 4.336 9.84195C4.0236 10.4756 4.0888 11.1044 4.5312 11.658C4.956 12.1892 5.5268 12.384 6.1904 12.2156C7.2724 11.9408 7.7464 10.6468 7.1304 9.67715C7.0772 9.59315 7.0268 9.52995 7.1064 9.42275C7.8944 8.36155 8.6752 7.29515 9.4644 6.23475C9.5032 6.18275 9.5992 6.15595 9.6716 6.14955C9.8688 6.13235 10.0708 6.15195 10.2644 6.11915C10.3844 6.09875 10.4532 6.12075 10.5316 6.20435C11.008 6.71235 11.4848 7.21995 11.9708 7.71875C12.08 7.83075 12.0852 7.91075 12.0196 8.05115C11.5164 9.12795 12.2476 10.3972 13.3948 10.4404C14.0456 10.4648 14.55 10.1848 14.8732 9.62555C15.2156 9.03395 15.1944 8.42875 14.8272 7.84995C14.7476 7.72435 14.7476 7.64835 14.8372 7.53115C15.6748 6.43475 16.5072 5.33395 17.3368 4.23115C17.4196 4.12075 17.4828 4.09195 17.62 4.15115C18.21 4.40435 18.7596 4.30075 19.2468 3.89915C19.8564 3.39675 20.0192 2.50235 19.6452 1.80795C19.2664 1.10475 18.4932 0.779953 17.74 1.00755C16.7552 1.30515 16.2944 2.48595 16.8028 3.42235C16.8616 3.53035 16.88 3.60275 16.7968 3.71235C15.9396 4.83435 15.0872 5.96035 14.238 7.08875C14.1592 7.19355 14.0928 7.21635 13.9644 7.17435C13.5612 7.04155 13.1604 7.06555 12.784 7.26795C12.6644 7.33195 12.6016 7.29955 12.5212 7.21315C12.2184 6.88715 11.9096 6.56675 11.6036 6.24395C11.4268 6.05755 11.2508 5.87075 11.0764 5.68595C11.8392 4.78635 11.5608 3.73435 10.9728 3.22075C10.3396 2.66835 9.4048 2.69475 8.7948 3.28395C8.2452 3.81515 7.9908 4.89555 8.8616 5.77915Z" fill="#B5B3B3"/>
<path d="M9.0184 16.2948C8.9072 16.2948 8.8248 16.2948 8.7428 16.2948C5.9752 16.2948 3.2076 16.2952 0.4404 16.2948C0.0668 16.2948 0 16.2276 0 15.8576C0 15.1612 0 14.4652 0 13.7512C7.9976 13.7512 15.9852 13.7512 23.9896 13.7512C23.9924 13.812 23.998 13.8744 23.998 13.9368C23.9988 14.582 23.9992 15.2272 23.9984 15.872C23.998 16.198 23.8992 16.2948 23.5688 16.2948C20.6656 16.2948 17.7628 16.2948 14.8596 16.2948C14.7708 16.2948 14.6816 16.2948 14.5796 16.2948C14.5744 16.3696 14.5668 16.4256 14.5668 16.482C14.566 17.3076 14.5716 18.1336 14.562 18.9592C14.56 19.138 14.6236 19.1724 14.7856 19.1716C16.0112 19.166 17.2372 19.168 18.4628 19.1692C18.5528 19.1692 18.644 19.1712 18.7324 19.1864C19.032 19.2388 19.2232 19.4844 19.212 19.7944C19.2012 20.0908 18.9736 20.3308 18.676 20.3572C18.6248 20.3616 18.5728 20.3604 18.5212 20.3604C14.1668 20.3604 9.8124 20.3604 5.4576 20.3604C5.0804 20.3604 4.8564 20.2116 4.7792 19.9128C4.6924 19.5784 4.898 19.2488 5.2376 19.1872C5.332 19.17 5.43 19.1688 5.5264 19.1688C6.61 19.1676 7.694 19.1628 8.7776 19.1732C8.9796 19.1752 9.0248 19.1116 9.0224 18.9208C9.0124 18.1208 9.018 17.3208 9.0176 16.5212C9.0184 16.4572 9.0184 16.3936 9.0184 16.2948ZM10.2172 16.3032C10.2096 16.3476 10.1972 16.3848 10.1972 16.422C10.196 17.2852 10.1984 18.1484 10.1932 19.0116C10.1924 19.1668 10.2756 19.1692 10.3892 19.1688C11.3232 19.1668 12.2572 19.1644 13.1916 19.1708C13.348 19.172 13.4024 19.1324 13.4012 18.9676C13.3932 18.1368 13.398 17.3056 13.3972 16.4744C13.3972 16.4192 13.3884 16.3636 13.3832 16.3028C12.3188 16.3032 11.2712 16.3032 10.2172 16.3032Z" fill="#B5B3B3"/>
<path d="M5.78089 11.5092C5.29329 11.5092 4.89769 11.1012 4.89649 10.5968C4.89569 10.0964 5.29649 9.67835 5.77889 9.67755C6.26289 9.67675 6.66049 10.0904 6.66089 10.5948C6.66169 11.1024 6.26969 11.5092 5.78089 11.5092Z" fill="#B5B3B3"/>
<path d="M13.478 9.68276C12.9896 9.68076 12.5988 9.27116 12.6016 8.76476C12.6044 8.25836 13.0004 7.85076 13.4868 7.85356C13.9732 7.85636 14.3656 8.26836 14.3636 8.77396C14.3616 9.28036 13.9672 9.68516 13.478 9.68276Z" fill="#B5B3B3"/>
<path d="M10.7945 4.48396C10.8025 5.02156 10.3961 5.38836 9.92568 5.40916C9.43888 5.43076 9.04408 5.01556 9.04008 4.50636C9.03568 3.99556 9.41888 3.58316 9.90488 3.57596C10.3865 3.56876 10.7913 3.98196 10.7945 4.48396Z" fill="#B5B3B3"/>
<path d="M18.2096 3.52435C17.7256 3.52235 17.3332 3.10795 17.336 2.60195C17.3388 2.09955 17.742 1.68635 18.224 1.69195C18.7092 1.69755 19.1044 2.11515 19.1 2.61635C19.0952 3.11995 18.6964 3.52635 18.2096 3.52435Z" fill="#B5B3B3"/>
</g>
<defs>
<clipPath id="clip0_275_1001">
<rect width="24" height="20.12" fill="white" transform="translate(0 0.22998)"/>
</clipPath>
</defs>
</svg>
