<svg width="86" height="86" viewBox="0 0 86 86" fill="none" xmlns="http://www.w3.org/2000/svg">
<path d="M85.7198 42.8986C85.7198 51.3255 83.2209 59.5631 78.5392 66.5698C73.8575 73.5764 67.2032 79.0375 59.4178 82.2623C51.6324 85.4871 43.0656 86.3309 34.8006 84.6869C26.5357 83.0429 18.9438 78.985 12.9852 73.0263C7.02646 67.0676 2.96854 59.4758 1.32454 51.2108C-0.319459 42.9459 0.524301 34.379 3.74912 26.5936C6.97394 18.8082 12.435 12.1539 19.4417 7.47221C26.4483 2.7905 34.686 0.291641 43.1128 0.291641V21.5951C38.8994 21.5951 34.7806 22.8446 31.2772 25.1854C27.7739 27.5263 25.0434 30.8534 23.431 34.7461C21.8186 38.6388 21.3967 42.9222 22.2187 47.0547C23.0407 51.1872 25.0696 54.9831 28.049 57.9624C31.0283 60.9418 34.8242 62.9707 38.9567 63.7927C43.0892 64.6147 47.3726 64.1929 51.2653 62.5805C55.158 60.968 58.4852 58.2375 60.826 54.7342C63.1669 51.2308 64.4163 47.112 64.4163 42.8986H85.7198Z" fill="#2EFFB4"/>
<path d="M85.7198 42.8986C85.7198 51.3255 83.2209 59.5631 78.5392 66.5698C73.8575 73.5764 67.2032 79.0375 59.4178 82.2623C51.6324 85.4871 43.0656 86.3309 34.8006 84.6869C26.5357 83.0429 18.9438 78.985 12.9852 73.0263C7.02646 67.0676 2.96854 59.4758 1.32454 51.2108C-0.319459 42.9459 0.524301 34.379 3.74912 26.5936C6.97394 18.8082 12.435 12.1539 19.4417 7.47221C26.4483 2.7905 34.686 0.291641 43.1128 0.291641V21.5951C38.8994 21.5951 34.7806 22.8446 31.2772 25.1854C27.7739 27.5263 25.0434 30.8534 23.431 34.7461C21.8186 38.6388 21.3967 42.9222 22.2187 47.0547C23.0407 51.1872 25.0696 54.9831 28.049 57.9624C31.0283 60.9418 34.8242 62.9707 38.9567 63.7927C43.0892 64.6147 47.3726 64.1929 51.2653 62.5805C55.158 60.968 58.4852 58.2375 60.826 54.7342C63.1669 51.2308 64.4163 47.112 64.4163 42.8986H85.7198Z" fill="#86FF68"/>
<path d="M43.1128 0.291624C48.708 0.291624 54.2485 1.39368 59.4178 3.53489C64.5871 5.67608 69.2841 8.81449 73.2405 12.7709C77.1969 16.7273 80.3353 21.4243 82.4765 26.5936C84.6177 31.7629 85.7198 37.3034 85.7198 42.8986L64.4163 42.8986C64.4163 40.101 63.8653 37.3308 62.7947 34.7461C61.7241 32.1614 60.1549 29.813 58.1767 27.8348C56.1984 25.8565 53.85 24.2873 51.2653 23.2167C48.6807 22.1461 45.9104 21.5951 43.1128 21.5951L43.1128 0.291624Z" fill="#86FF68"/>
<path d="M43.1128 0.291624C48.708 0.291624 54.2485 1.39368 59.4178 3.53489C64.5871 5.67608 69.2841 8.81449 73.2405 12.7709C77.1969 16.7273 80.3353 21.4243 82.4765 26.5936C84.6177 31.7629 85.7198 37.3034 85.7198 42.8986L64.4163 42.8986C64.4163 40.101 63.8653 37.3308 62.7947 34.7461C61.7241 32.1614 60.1549 29.813 58.1767 27.8348C56.1984 25.8565 53.85 24.2873 51.2653 23.2167C48.6807 22.1461 45.9104 21.5951 43.1128 21.5951L43.1128 0.291624Z" fill="#A62632"/>
</svg>
