<svg width="87" height="86" viewBox="0 0 87 86" fill="none" xmlns="http://www.w3.org/2000/svg">
<path d="M86.0528 43.2203C86.0528 51.6472 83.5539 59.8848 78.8722 66.8915C74.1905 73.8982 67.5362 79.3592 59.7508 82.584C51.9654 85.8089 43.3986 86.6526 35.1336 85.0086C26.8687 83.3646 19.2768 79.3067 13.3182 73.348C7.35947 67.3893 3.30155 59.7975 1.65755 51.5325C0.0135489 43.2676 0.857309 34.7008 4.08213 26.9154C7.30695 19.13 12.768 12.4757 19.7747 7.79394C26.7813 3.11223 35.019 0.613373 43.4458 0.613373L43.4458 21.9169C39.2324 21.9169 35.1136 23.1663 31.6103 25.5071C28.1069 27.848 25.3764 31.1751 23.764 35.0678C22.1516 38.9605 21.7297 43.244 22.5517 47.3764C23.3737 51.5089 25.4026 55.3048 28.382 58.2842C31.3613 61.2635 35.1573 63.2925 39.2897 64.1145C43.4222 64.9365 47.7056 64.5146 51.5983 62.9022C55.491 61.2898 58.8182 58.5593 61.159 55.0559C63.4999 51.5526 64.7493 47.4338 64.7493 43.2203H86.0528Z" fill="#2EFFB4"/>
<path d="M86.0528 43.2203C86.0528 51.6472 83.5539 59.8848 78.8722 66.8915C74.1905 73.8982 67.5362 79.3592 59.7508 82.584C51.9654 85.8089 43.3986 86.6526 35.1336 85.0086C26.8687 83.3646 19.2768 79.3067 13.3182 73.348C7.35947 67.3893 3.30155 59.7975 1.65755 51.5325C0.0135489 43.2676 0.857309 34.7008 4.08213 26.9154C7.30695 19.13 12.768 12.4757 19.7747 7.79394C26.7813 3.11223 35.019 0.613373 43.4458 0.613373L43.4458 21.9169C39.2324 21.9169 35.1136 23.1663 31.6103 25.5071C28.1069 27.848 25.3764 31.1751 23.764 35.0678C22.1516 38.9605 21.7297 43.244 22.5517 47.3764C23.3737 51.5089 25.4026 55.3048 28.382 58.2842C31.3613 61.2635 35.1573 63.2925 39.2897 64.1145C43.4222 64.9365 47.7056 64.5146 51.5983 62.9022C55.491 61.2898 58.8182 58.5593 61.159 55.0559C63.4999 51.5526 64.7493 47.4338 64.7493 43.2203H86.0528Z" fill="#518CFF"/>
<path d="M43.4458 0.613371C49.0411 0.613371 54.5815 1.71543 59.7508 3.85663C64.9201 5.99783 69.6171 9.13624 73.5735 13.0927C77.5299 17.0491 80.6683 21.746 82.8095 26.9154C84.9507 32.0847 86.0528 37.6251 86.0528 43.2203L64.7493 43.2203C64.7493 40.4227 64.1983 37.6525 63.1277 35.0678C62.0571 32.4832 60.4879 30.1347 58.5097 28.1565C56.5315 26.1783 54.183 24.6091 51.5983 23.5385C49.0137 22.4679 46.2434 21.9169 43.4458 21.9169L43.4458 0.613371Z" fill="#2EFFB4"/>
<path d="M43.4458 0.613371C49.0411 0.613371 54.5815 1.71543 59.7508 3.85663C64.9201 5.99783 69.6171 9.13624 73.5735 13.0927C77.5299 17.0491 80.6683 21.746 82.8095 26.9154C84.9507 32.0847 86.0528 37.6251 86.0528 43.2203L64.7493 43.2203C64.7493 40.4227 64.1983 37.6525 63.1277 35.0678C62.0571 32.4832 60.4879 30.1347 58.5097 28.1565C56.5315 26.1783 54.183 24.6091 51.5983 23.5385C49.0137 22.4679 46.2434 21.9169 43.4458 21.9169L43.4458 0.613371Z" fill="#47BDFF"/>
</svg>
