<svg width="87" height="87" viewBox="0 0 87 87" fill="none" xmlns="http://www.w3.org/2000/svg">
<path d="M86.0528 43.4343C86.0528 51.8612 83.5539 60.0988 78.8722 67.1055C74.1905 74.1121 67.5362 79.5732 59.7508 82.798C51.9654 86.0228 43.3986 86.8666 35.1336 85.2226C26.8687 83.5786 19.2768 79.5207 13.3182 73.562C7.35947 67.6033 3.30155 60.0114 1.65755 51.7465C0.0135489 43.4816 0.857309 34.9147 4.08213 27.1293C7.30695 19.3439 12.768 12.6896 19.7747 8.0079C26.7813 3.32619 35.019 0.827331 43.4458 0.827332L43.4458 22.1308C39.2324 22.1308 35.1136 23.3802 31.6103 25.7211C28.1069 28.062 25.3764 31.3891 23.764 35.2818C22.1516 39.1745 21.7297 43.4579 22.5517 47.5904C23.3737 51.7229 25.4026 55.5188 28.382 58.4981C31.3613 61.4775 35.1573 63.5064 39.2897 64.3284C43.4222 65.1504 47.7056 64.7286 51.5983 63.1161C55.491 61.5037 58.8182 58.7732 61.159 55.2699C63.4999 51.7665 64.7493 47.6477 64.7493 43.4343H86.0528Z" fill="#2EFFB4"/>
<path d="M86.0528 43.4343C86.0528 51.8612 83.5539 60.0988 78.8722 67.1055C74.1905 74.1121 67.5362 79.5732 59.7508 82.798C51.9654 86.0228 43.3986 86.8666 35.1336 85.2226C26.8687 83.5786 19.2768 79.5207 13.3182 73.562C7.35947 67.6033 3.30155 60.0114 1.65755 51.7465C0.0135489 43.4816 0.857309 34.9147 4.08213 27.1293C7.30695 19.3439 12.768 12.6896 19.7747 8.0079C26.7813 3.32619 35.019 0.827331 43.4458 0.827332L43.4458 22.1308C39.2324 22.1308 35.1136 23.3802 31.6103 25.7211C28.1069 28.062 25.3764 31.3891 23.764 35.2818C22.1516 39.1745 21.7297 43.4579 22.5517 47.5904C23.3737 51.7229 25.4026 55.5188 28.382 58.4981C31.3613 61.4775 35.1573 63.5064 39.2897 64.3284C43.4222 65.1504 47.7056 64.7286 51.5983 63.1161C55.491 61.5037 58.8182 58.7732 61.159 55.2699C63.4999 51.7665 64.7493 47.6477 64.7493 43.4343H86.0528Z" fill="#86FF68"/>
<path d="M43.4458 0.82733C49.0411 0.827329 54.5815 1.92939 59.7508 4.07059C64.9201 6.21179 69.6171 9.3502 73.5735 13.3066C77.5299 17.263 80.6683 21.96 82.8095 27.1293C84.9507 32.2986 86.0528 37.8391 86.0528 43.4343L64.7493 43.4343C64.7493 40.6367 64.1983 37.8665 63.1277 35.2818C62.0571 32.6971 60.4879 30.3487 58.5097 28.3705C56.5315 26.3922 54.183 24.823 51.5983 23.7524C49.0137 22.6818 46.2434 22.1308 43.4458 22.1308L43.4458 0.82733Z" fill="#86FF68"/>
<path d="M43.4458 0.82733C49.0411 0.827329 54.5815 1.92939 59.7508 4.07059C64.9201 6.21179 69.6171 9.3502 73.5735 13.3066C77.5299 17.263 80.6683 21.96 82.8095 27.1293C84.9507 32.2986 86.0528 37.8391 86.0528 43.4343L64.7493 43.4343C64.7493 40.6367 64.1983 37.8665 63.1277 35.2818C62.0571 32.6971 60.4879 30.3487 58.5097 28.3705C56.5315 26.3922 54.183 24.823 51.5983 23.7524C49.0137 22.6818 46.2434 22.1308 43.4458 22.1308L43.4458 0.82733Z" fill="#A62632"/>
</svg>
