<svg width="24" height="21" viewBox="0 0 24 21" fill="none" xmlns="http://www.w3.org/2000/svg">
<path d="M23.9984 12.7344C15.9868 12.7344 8.0096 12.7344 0 12.7344C0 12.6528 0 12.5784 0 12.504C0 8.4728 0 4.4416 0 0.4104C0 0.0756 0.0728 0.0028 0.4084 0.0028C8.1032 0.0028 15.7976 0.0036 23.4924 0C23.8616 0 23.9936 0.0168 23.996 0.5096C24.0024 1.7416 23.9984 2.9736 23.9984 4.2052C23.9984 6.9592 23.9984 9.7132 23.998 12.4676C23.9984 12.5504 23.9984 12.6324 23.9984 12.7344ZM8.8616 5.5496C8.0724 6.6212 7.29 7.686 6.5016 8.746C6.4732 8.7844 6.3812 8.7948 6.3228 8.7876C6.1576 8.7664 5.9952 8.7064 5.8308 8.7024C5.1424 8.6864 4.6348 9.006 4.336 9.6124C4.0236 10.246 4.0888 10.8748 4.5312 11.4284C4.956 11.9596 5.5268 12.1544 6.1904 11.986C7.2724 11.7112 7.7464 10.4172 7.1304 9.4476C7.0772 9.3636 7.0268 9.3004 7.1064 9.1932C7.8944 8.132 8.6752 7.0656 9.4644 6.0052C9.5032 5.9532 9.5992 5.9264 9.6716 5.92C9.8688 5.9028 10.0708 5.9224 10.2644 5.8896C10.3844 5.8692 10.4532 5.8912 10.5316 5.9748C11.008 6.4828 11.4848 6.9904 11.9708 7.4892C12.08 7.6012 12.0852 7.6812 12.0196 7.8216C11.5164 8.8984 12.2476 10.1676 13.3948 10.2108C14.0456 10.2352 14.55 9.9552 14.8732 9.396C15.2156 8.8044 15.1944 8.1992 14.8272 7.6204C14.7476 7.4948 14.7476 7.4188 14.8372 7.3016C15.6748 6.2052 16.5072 5.1044 17.3368 4.0016C17.4196 3.8912 17.4828 3.8624 17.62 3.9216C18.21 4.1748 18.7596 4.0712 19.2468 3.6696C19.8564 3.1672 20.0192 2.2728 19.6452 1.5784C19.2664 0.8752 18.4932 0.5504 17.74 0.778C16.7552 1.0756 16.2944 2.2564 16.8028 3.1928C16.8616 3.3008 16.88 3.3732 16.7968 3.4828C15.9396 4.6048 15.0872 5.7308 14.238 6.8592C14.1592 6.964 14.0928 6.9868 13.9644 6.9448C13.5612 6.812 13.1604 6.836 12.784 7.0384C12.6644 7.1024 12.6016 7.07 12.5212 6.9836C12.2184 6.6576 11.9096 6.3372 11.6036 6.0144C11.4268 5.828 11.2508 5.6412 11.0764 5.4564C11.8392 4.5568 11.5608 3.5048 10.9728 2.9912C10.3396 2.4388 9.4048 2.4652 8.7948 3.0544C8.2452 3.5856 7.9908 4.666 8.8616 5.5496Z" fill="white"/>
<path d="M9.0184 16.0652C8.9072 16.0652 8.8248 16.0652 8.7428 16.0652C5.9752 16.0652 3.2076 16.0656 0.4404 16.0652C0.0668 16.0652 0 15.998 0 15.628C0 14.9316 0 14.2356 0 13.5216C7.9976 13.5216 15.9852 13.5216 23.9896 13.5216C23.9924 13.5824 23.998 13.6448 23.998 13.7072C23.9988 14.3524 23.9992 14.9976 23.9984 15.6424C23.998 15.9684 23.8992 16.0652 23.5688 16.0652C20.6656 16.0652 17.7628 16.0652 14.8596 16.0652C14.7708 16.0652 14.6816 16.0652 14.5796 16.0652C14.5744 16.14 14.5668 16.196 14.5668 16.2524C14.566 17.078 14.5716 17.904 14.562 18.7296C14.56 18.9084 14.6236 18.9428 14.7856 18.942C16.0112 18.9364 17.2372 18.9384 18.4628 18.9396C18.5528 18.9396 18.644 18.9416 18.7324 18.9568C19.032 19.0092 19.2232 19.2548 19.212 19.5648C19.2012 19.8612 18.9736 20.1012 18.676 20.1276C18.6248 20.132 18.5728 20.1308 18.5212 20.1308C14.1668 20.1308 9.8124 20.1308 5.4576 20.1308C5.0804 20.1308 4.8564 19.982 4.7792 19.6832C4.6924 19.3488 4.898 19.0192 5.2376 18.9576C5.332 18.9404 5.43 18.9392 5.5264 18.9392C6.61 18.938 7.694 18.9332 8.7776 18.9436C8.9796 18.9456 9.0248 18.882 9.0224 18.6912C9.0124 17.8912 9.018 17.0912 9.0176 16.2916C9.0184 16.2276 9.0184 16.164 9.0184 16.0652ZM10.2172 16.0736C10.2096 16.118 10.1972 16.1552 10.1972 16.1924C10.196 17.0556 10.1984 17.9188 10.1932 18.782C10.1924 18.9372 10.2756 18.9396 10.3892 18.9392C11.3232 18.9372 12.2572 18.9348 13.1916 18.9412C13.348 18.9424 13.4024 18.9028 13.4012 18.738C13.3932 17.9072 13.398 17.076 13.3972 16.2448C13.3972 16.1896 13.3884 16.134 13.3832 16.0732C12.3188 16.0736 11.2712 16.0736 10.2172 16.0736Z" fill="white"/>
<path d="M5.78089 11.2796C5.29329 11.2796 4.89769 10.8716 4.89649 10.3672C4.89569 9.8668 5.29649 9.4488 5.77889 9.448C6.26289 9.4472 6.66049 9.8608 6.66089 10.3652C6.66169 10.8728 6.26969 11.2796 5.78089 11.2796Z" fill="white"/>
<path d="M13.478 9.45318C12.9896 9.45118 12.5988 9.04158 12.6016 8.53518C12.6044 8.02878 13.0004 7.62118 13.4868 7.62398C13.9732 7.62678 14.3656 8.03878 14.3636 8.54438C14.3616 9.05078 13.9672 9.45558 13.478 9.45318Z" fill="white"/>
<path d="M10.7945 4.25441C10.8025 4.79201 10.3961 5.15881 9.92568 5.17961C9.43888 5.20121 9.04408 4.78601 9.04008 4.27681C9.03568 3.76601 9.41888 3.35361 9.90488 3.34641C10.3865 3.33921 10.7913 3.75241 10.7945 4.25441Z" fill="white"/>
<path d="M18.2096 3.2948C17.7256 3.2928 17.3332 2.8784 17.336 2.3724C17.3388 1.87 17.742 1.4568 18.224 1.4624C18.7092 1.468 19.1044 1.8856 19.1 2.3868C19.0952 2.8904 18.6964 3.2968 18.2096 3.2948Z" fill="white"/>
</svg>
