<svg width="86" height="86" viewBox="0 0 86 86" fill="none" xmlns="http://www.w3.org/2000/svg">
<path d="M85.7198 42.6846C85.7198 51.1115 83.2209 59.3491 78.5392 66.3558C73.8575 73.3625 67.2032 78.8235 59.4178 82.0483C51.6324 85.2732 43.0656 86.1169 34.8006 84.4729C26.5357 82.8289 18.9438 78.771 12.9852 72.8123C7.02646 66.8536 2.96854 59.2618 1.32454 50.9968C-0.319459 42.7319 0.524301 34.1651 3.74912 26.3797C6.97394 18.5942 12.435 11.9399 19.4417 7.25823C26.4483 2.57652 34.686 0.0776671 43.1128 0.0776672V21.3811C38.8994 21.3811 34.7806 22.6306 31.2772 24.9714C27.7739 27.3123 25.0434 30.6394 23.431 34.5321C21.8186 38.4248 21.3967 42.7083 22.2187 46.8407C23.0407 50.9732 25.0696 54.7691 28.049 57.7485C31.0283 60.7278 34.8242 62.7568 38.9567 63.5788C43.0892 64.4008 47.3726 63.9789 51.2653 62.3665C55.158 60.7541 58.4852 58.0236 60.826 54.5202C63.1669 51.0169 64.4163 46.8981 64.4163 42.6846H85.7198Z" fill="#2EFFB4"/>
<path d="M85.7198 42.6846C85.7198 51.1115 83.2209 59.3491 78.5392 66.3558C73.8575 73.3625 67.2032 78.8235 59.4178 82.0483C51.6324 85.2732 43.0656 86.1169 34.8006 84.4729C26.5357 82.8289 18.9438 78.771 12.9852 72.8123C7.02646 66.8536 2.96854 59.2618 1.32454 50.9968C-0.319459 42.7319 0.524301 34.1651 3.74912 26.3797C6.97394 18.5942 12.435 11.9399 19.4417 7.25823C26.4483 2.57652 34.686 0.0776671 43.1128 0.0776672V21.3811C38.8994 21.3811 34.7806 22.6306 31.2772 24.9714C27.7739 27.3123 25.0434 30.6394 23.431 34.5321C21.8186 38.4248 21.3967 42.7083 22.2187 46.8407C23.0407 50.9732 25.0696 54.7691 28.049 57.7485C31.0283 60.7278 34.8242 62.7568 38.9567 63.5788C43.0892 64.4008 47.3726 63.9789 51.2653 62.3665C55.158 60.7541 58.4852 58.0236 60.826 54.5202C63.1669 51.0169 64.4163 46.8981 64.4163 42.6846H85.7198Z" fill="#518CFF"/>
<path d="M43.1128 0.0776654C48.708 0.0776651 54.2485 1.17972 59.4178 3.32093C64.5871 5.46212 69.2841 8.60053 73.2405 12.557C77.1969 16.5134 80.3353 21.2103 82.4765 26.3797C84.6177 31.549 85.7198 37.0894 85.7198 42.6846L64.4163 42.6846C64.4163 39.887 63.8653 37.1168 62.7947 34.5321C61.7241 31.9475 60.1549 29.599 58.1767 27.6208C56.1984 25.6426 53.85 24.0734 51.2653 23.0028C48.6807 21.9322 45.9104 21.3811 43.1128 21.3811L43.1128 0.0776654Z" fill="#2EFFB4"/>
<path d="M43.1128 0.0776654C48.708 0.0776651 54.2485 1.17972 59.4178 3.32093C64.5871 5.46212 69.2841 8.60053 73.2405 12.557C77.1969 16.5134 80.3353 21.2103 82.4765 26.3797C84.6177 31.549 85.7198 37.0894 85.7198 42.6846L64.4163 42.6846C64.4163 39.887 63.8653 37.1168 62.7947 34.5321C61.7241 31.9475 60.1549 29.599 58.1767 27.6208C56.1984 25.6426 53.85 24.0734 51.2653 23.0028C48.6807 21.9322 45.9104 21.3811 43.1128 21.3811L43.1128 0.0776654Z" fill="#47BDFF"/>
</svg>
