<svg width="311" height="135" viewBox="0 0 311 135" fill="none" xmlns="http://www.w3.org/2000/svg">
<path d="M38.6547 74.6848C19.4177 73.3464 1.5166 98.8977 1.5166 98.8977V134.426H309.843V35.3844C299.69 36.4794 293.812 77.7266 281.522 78.335C269.231 78.9434 262.819 57.7722 248.659 59.2323C234.498 60.6924 231.292 38.1829 212.856 37.3311C194.421 36.4794 177.856 84.7837 150.603 82.5935C123.351 80.4034 139.382 59.9623 118.274 57.5289C97.1672 55.0954 67.7774 94.6392 54.6855 92.4491C41.5937 90.259 57.8917 76.0232 38.6547 74.6848Z" fill="url(#paint0_linear_274_830)"/>
<path fill-rule="evenodd" clip-rule="evenodd" d="M286.34 76.5518C284.958 77.7617 283.385 78.5906 281.569 78.6805C278.181 78.8481 275.302 77.5095 272.73 75.6176C270.39 73.8967 268.184 71.6272 265.977 69.3568C265.743 69.1165 265.51 68.8762 265.276 68.6366C262.816 66.1142 260.335 63.6601 257.604 61.9249C254.876 60.1911 252.008 59.2426 248.758 59.5777C244.898 59.9756 241.848 58.7193 239.218 56.7644C236.775 54.9484 234.583 52.4484 232.336 49.8854C232.169 49.6942 232.001 49.5027 231.832 49.3111C229.39 46.5312 226.846 43.7183 223.78 41.5458C220.72 39.3775 217.197 37.8878 212.809 37.6851C210.738 37.5894 208.618 38.1793 206.404 39.3834C204.194 40.5857 201.962 42.3617 199.686 44.5385C196.084 47.9855 192.432 52.3774 188.617 56.9652C187.612 58.1741 186.595 59.3966 185.565 60.619C180.641 66.4636 175.414 72.3007 169.696 76.5403C163.996 80.7661 157.665 83.5101 150.522 82.9362C143.559 82.3768 139.298 80.641 136.535 78.2912C133.798 75.9635 132.569 73.0612 131.551 70.2198C131.414 69.8355 131.28 69.4526 131.147 69.0722C130.287 66.6116 129.465 64.2572 127.863 62.3156C126.041 60.1075 123.227 58.4574 118.16 57.8733C115.689 57.5885 113.055 57.9125 110.281 58.7343C107.504 59.5567 104.622 60.8675 101.68 62.5201C95.795 65.8262 89.7615 70.448 83.9487 75.1023C82.7298 76.0783 81.5203 77.056 80.3242 78.0229C75.8318 81.6543 71.5278 85.1333 67.6214 87.7982C65.1482 89.4854 62.8055 90.8668 60.6471 91.7586C58.5064 92.6431 56.4218 93.0973 54.5235 92.7798C52.7849 92.489 51.5 91.9912 50.5699 91.3292C49.645 90.6708 49.1008 89.8714 48.7805 89.0034C48.2671 87.6122 48.3113 85.9738 48.355 84.3559C48.3651 83.9804 48.3752 83.606 48.3783 83.2361C48.395 81.2329 48.2111 79.3441 46.9072 77.8751C45.6365 76.4436 43.2447 75.354 38.5842 75.0298C34.0112 74.7117 29.4462 75.9874 25.1173 78.1667C20.7961 80.3421 16.7915 83.3783 13.3658 86.4751C9.94344 89.5688 7.11659 92.7067 5.14447 95.0727C4.1588 96.2553 3.38755 97.2439 2.86308 97.9364C2.60087 98.2826 2.40039 98.5548 2.2657 98.74C2.19836 98.8326 2.14746 98.9035 2.11352 98.9511L2.07539 99.0047L2.06599 99.0181L2.06372 99.0213L2.06319 99.0221C2.0631 99.0222 2.06308 99.0222 1.51479 98.8849C0.966508 98.7475 0.966622 98.7474 0.966803 98.7471L0.967508 98.7461L0.970142 98.7424L0.980291 98.728L1.01994 98.6722C1.05492 98.6232 1.10689 98.5508 1.17535 98.4566C1.31228 98.2683 1.51518 97.9929 1.78002 97.6432C2.30967 96.9439 3.08723 95.9472 4.08036 94.7557C6.06585 92.3736 8.91658 89.2085 12.3741 86.083C15.8283 82.9605 19.9059 79.861 24.3515 77.6229C28.7895 75.3887 33.6761 73.9728 38.7216 74.3238C43.6796 74.6687 46.4644 75.86 47.9573 77.5419C49.4171 79.1864 49.5838 81.2436 49.5672 83.2396C49.5639 83.632 49.5537 84.0217 49.5436 84.4067C49.5013 86.0188 49.4612 87.5488 49.9415 88.8502C50.2348 89.6453 50.7155 90.3276 51.4803 90.872C52.2399 91.4126 53.3096 91.8386 54.8438 92.0952C56.2186 92.3252 57.9163 92.0228 59.9711 91.1738C62.0082 90.3322 64.2744 89.003 66.7273 87.3297C70.5979 84.6893 74.8616 81.2429 79.3497 77.6151C80.5502 76.6448 81.7667 75.6614 82.9961 74.6771C88.8056 70.0253 94.8954 65.3562 100.866 62.002C103.853 60.3245 106.832 58.9628 109.753 58.0973C112.677 57.2312 115.58 56.852 118.385 57.1754C123.871 57.8078 126.969 59.6247 128.929 62.0012C130.604 64.0306 131.46 66.4857 132.315 68.9368C132.447 69.3155 132.579 69.6941 132.714 70.071C133.733 72.9167 134.926 75.6863 137.508 77.8824C140.063 80.0563 144.017 81.6963 150.681 82.2317C157.164 82.7527 163.123 80.281 168.77 76.0941C174.399 71.9209 179.575 66.1481 184.503 60.2992C185.524 59.0874 186.535 57.8721 187.536 56.6676C191.355 52.0755 195.042 47.6412 198.678 44.1619C200.974 41.9651 203.274 40.1248 205.604 38.8576C207.931 37.5921 210.362 36.8591 212.9 36.9763C217.73 37.1994 221.52 38.8421 224.689 41.0874C227.852 43.3284 230.451 46.2102 232.885 48.9805C233.048 49.1657 233.21 49.3504 233.371 49.5343C235.639 52.1205 237.778 54.5598 240.144 56.3189C242.674 58.1998 245.335 59.2092 248.556 58.8772C252.385 58.4824 255.629 59.6323 258.47 61.4378C261.309 63.2417 263.854 65.7676 266.303 68.2785C266.536 68.5169 266.767 68.7553 266.998 68.9929C269.218 71.2755 271.376 73.4944 273.653 75.1692C276.182 77.0293 278.713 78.1085 281.471 77.9721C282.728 77.9099 284.026 77.317 285.358 76.151C286.674 74.999 287.931 73.366 289.144 71.3914C291.569 67.445 293.765 62.219 295.904 56.9539C296.134 56.3877 296.364 55.821 296.593 55.2555C298.488 50.5737 300.351 45.9708 302.295 42.3614C303.384 40.3397 304.509 38.6099 305.695 37.3451C306.288 36.7126 306.908 36.1831 307.564 35.7895C308.219 35.3965 308.941 35.1203 309.735 35.0345L309.947 35.7341C309.472 35.7852 308.959 35.9595 308.406 36.2912C307.854 36.6222 307.295 37.0915 306.732 37.6926C305.605 38.8951 304.508 40.5714 303.427 42.5793C301.497 46.1619 299.645 50.737 297.747 55.4252C297.519 55.9896 297.29 56.5556 297.06 57.1217C294.924 62.3791 292.712 67.6454 290.26 71.6365C289.035 73.6306 287.738 75.3278 286.34 76.5518Z" fill="#DB00FF"/>
<path d="M46.5479 71.2098C19.8967 72.8684 1.5166 98.6951 1.5166 98.6951V134.664H310.239L309.843 30.2187C309.843 30.2187 291.922 50.8327 268.947 50.1219C245.972 49.4111 257.46 38.0378 237.241 30.2187C217.023 22.3996 198.184 63.3907 184.858 58.8888C171.533 54.3869 168.776 42.7767 151.314 43.7245C133.853 44.6722 134.772 78.0811 103.526 81.1614C72.28 84.2416 73.199 69.5512 46.5479 71.2098Z" fill="url(#paint1_linear_274_830)"/>
<path fill-rule="evenodd" clip-rule="evenodd" d="M190.415 58.9314C188.465 59.6501 186.475 59.8446 184.563 59.1984C181.144 58.0434 178.42 56.4382 175.993 54.716C174.779 53.8549 173.635 52.9608 172.516 52.0772C172.381 51.9706 172.246 51.8641 172.112 51.7579C171.13 50.9817 170.163 50.2179 169.172 49.487C166.918 47.8242 164.574 46.3607 161.744 45.3677C158.93 44.3801 155.608 43.8483 151.365 44.0786C147.341 44.297 144.255 46.3932 141.4 49.7037C139.343 52.0891 137.477 55.0163 135.485 58.1415C134.727 59.33 133.951 60.5472 133.139 61.7741C130.208 66.2058 126.823 70.7399 122.189 74.3618C117.545 77.9908 111.622 80.7233 103.62 81.5122C95.7295 82.2901 89.8305 81.9492 85.0023 81.0109C80.1819 80.074 76.4703 78.5488 72.9586 77.0052C72.5569 76.8286 72.1581 76.652 71.7608 76.476C68.6699 75.1067 65.6685 73.7772 62.0569 72.8235C58.0048 71.7534 53.1694 71.155 46.6063 71.5635C40.0957 71.9686 34.0558 73.8524 28.6397 76.4802C23.2248 79.1076 18.4642 82.464 14.5194 85.7806C10.5762 89.0957 7.45968 92.3611 5.32862 94.7986C4.26342 96.0169 3.44523 97.0275 2.89384 97.7328C2.61816 98.0854 2.40922 98.3617 2.2695 98.5494C2.19964 98.6432 2.14708 98.7149 2.11214 98.7629C2.09467 98.7869 2.08161 98.805 2.07298 98.817L2.06339 98.8304L2.06058 98.8343C2.0605 98.8344 2.06049 98.8344 1.51348 98.6953C0.96648 98.5561 0.966607 98.556 0.966804 98.5557L0.970299 98.5508L0.980828 98.5361C0.990078 98.5233 1.00378 98.5043 1.0219 98.4794C1.05814 98.4296 1.11205 98.356 1.18332 98.2603C1.32584 98.0689 1.53782 97.7886 1.81677 97.4318C2.37465 96.7182 3.20062 95.6981 4.27497 94.4693C6.42303 92.0124 9.56724 88.7175 13.5505 85.3686C17.532 82.0212 22.3636 78.61 27.8906 75.9283C33.4165 73.2471 39.6682 71.2806 46.4832 70.8565C53.2456 70.4356 58.2896 71.0516 62.5372 72.1732C66.2782 73.1611 69.3897 74.5401 72.47 75.9053C72.8677 76.0816 73.2649 76.2576 73.6629 76.4325C77.1587 77.9692 80.7416 79.4354 85.3698 80.3348C89.9902 81.2328 95.6936 81.5732 103.426 80.8109C111.047 80.0596 116.726 77.461 121.244 73.9299C125.772 70.3916 129.107 65.9367 132.034 61.5127C132.83 60.3098 133.596 59.1073 134.349 57.9268C136.351 54.7863 138.254 51.8014 140.344 49.378C143.204 46.0615 146.551 43.6262 151.258 43.3707C155.745 43.1271 159.316 43.6912 162.346 44.7546C165.361 45.8127 167.813 47.3553 170.096 49.0394C171.1 49.7803 172.08 50.5544 173.06 51.3296C173.195 51.4357 173.329 51.5419 173.464 51.648C174.582 52.5313 175.71 53.4124 176.902 54.258C179.286 55.9493 181.903 57.4835 185.147 58.5795C186.566 59.0588 188.08 58.9572 189.79 58.3264C191.526 57.6866 193.38 56.5276 195.347 54.9928C198.388 52.6189 201.595 49.4304 204.962 46.0839C205.946 45.1055 206.944 44.1136 207.955 43.1246C212.402 38.7753 217.107 34.4836 221.993 31.7725C224.439 30.4154 226.974 29.4294 229.587 29.0454C232.227 28.6576 234.901 28.8916 237.561 29.9205C246.872 33.5212 249.594 37.8843 251.889 41.5637C252.133 41.9534 252.371 42.3354 252.612 42.708C253.872 44.6576 255.18 46.3173 257.531 47.5441C259.869 48.7636 263.315 49.592 268.975 49.7671C280.165 50.1134 290.222 45.2578 297.559 40.2041C301.21 37.6889 304.15 35.1497 306.179 33.2383C307.192 32.283 307.977 31.4855 308.508 30.9276C308.773 30.6486 308.975 30.4296 309.11 30.2807C309.178 30.2063 309.229 30.1494 309.263 30.1114L309.3 30.0686L309.31 30.0581L309.312 30.0556L309.312 30.0551C309.312 30.055 309.312 30.055 309.774 30.1983L309.84 30.2189C310.367 30.3828 310.367 30.383 310.367 30.3832L310.366 30.3841L310.353 30.3991L310.313 30.4447C310.277 30.4846 310.225 30.5434 310.155 30.6197C310.017 30.7725 309.811 30.9957 309.542 31.279C309.003 31.8456 308.208 32.653 307.183 33.6191C305.133 35.5507 302.157 38.1206 298.457 40.67C291.089 45.7456 280.698 50.8416 268.913 50.477C263.086 50.2967 259.352 49.4369 256.75 48.0797C254.162 46.7297 252.77 44.9241 251.503 42.9642C251.259 42.5872 251.019 42.2032 250.776 41.8136C248.484 38.1451 245.885 33.9861 236.915 30.5173C234.521 29.5915 232.183 29.396 229.871 29.7357C227.533 30.0792 225.174 30.9776 222.802 32.2935C218.053 34.9284 213.425 39.1371 208.969 43.4954C207.973 44.47 206.985 45.4523 206.006 46.4249C202.633 49.7786 199.377 53.0162 196.29 55.4251C194.301 56.9779 192.339 58.2217 190.415 58.9314Z" fill="#518CFF"/>
<path d="M26.8802 71.6366C19.3616 83.2296 26.8802 110.495 1.5166 97.9372L1.91291 134.663H310.239V1.26471C289.235 2.44942 278.931 30.4086 262.682 29.4609C246.434 28.5131 235.734 16.1921 221.467 18.0876C207.2 19.9832 203.633 46.0468 186.195 46.0468C168.758 46.0468 166.38 37.28 140.62 37.28C114.86 37.28 91.8744 75.6646 79.9852 75.1908C68.096 74.7169 60.9625 67.3717 56.9995 65.2392C53.0364 63.1067 34.41 60.0264 26.8802 71.6366Z" fill="url(#paint2_linear_274_830)"/>
<path fill-rule="evenodd" clip-rule="evenodd" d="M274.468 25.8525C270.868 28.3733 267.001 30.0699 262.626 29.8147C254.852 29.3613 248.337 26.3702 242.269 23.5847C241.834 23.3853 241.402 23.1869 240.972 22.9906C237.724 21.5083 234.589 20.1393 231.392 19.2544C228.209 18.3732 225 17.9825 221.597 18.4347C218.298 18.8729 215.511 20.7304 212.905 23.4336C210.703 25.7173 208.704 28.5225 206.657 31.3945C206.295 31.9013 205.933 32.4101 205.567 32.9185C203.143 36.2912 200.593 39.6441 197.539 42.154C194.486 44.6625 190.839 46.4024 186.197 46.4024C178.149 46.4024 173.21 44.5642 167.942 42.604C167.373 42.3923 166.801 42.1791 166.22 41.9667C160.283 39.7958 153.356 37.6355 140.621 37.6355C134.427 37.6355 128.306 39.9477 122.373 43.5207C116.455 47.0847 110.823 51.8421 105.6 56.608C103.72 58.3229 101.891 60.0413 100.122 61.7037C96.9899 64.6461 94.0449 67.413 91.3373 69.6741C89.2161 71.4456 87.2142 72.9297 85.3524 73.9589C83.5154 74.9744 81.6944 75.6151 79.9469 75.5455C73.7989 75.3004 68.9168 73.2798 65.1095 71.0934C63.2034 69.9987 61.5518 68.8538 60.1388 67.857C59.9995 67.7588 59.8629 67.6622 59.7288 67.5675C58.487 66.6899 57.4627 65.966 56.603 65.5035C55.7054 65.0204 53.8938 64.4479 51.5205 64.0487C49.162 63.652 46.3048 63.4363 43.3458 63.6376C37.4682 64.0376 31.1192 66.0855 27.4357 71.7652C25.5877 74.6146 24.6534 78.4486 23.904 82.4426C23.7301 83.3691 23.5662 84.3043 23.4028 85.2363C22.8658 88.3003 22.3347 91.3309 21.4745 93.913C20.9127 95.5993 20.2043 97.1162 19.2451 98.3417C18.2875 99.565 17.0535 100.532 15.4084 101.068C13.7434 101.611 11.7514 101.683 9.39803 101.226C7.06031 100.773 4.33665 99.7944 1.13867 98.2111L1.89698 97.6636C5.03991 99.2197 7.62957 100.136 9.7648 100.55C11.8844 100.961 13.525 100.872 14.8393 100.444C16.1736 100.009 17.2657 99.1934 18.1683 98.0404C19.0692 96.8894 19.7549 95.4358 20.3085 93.7742C21.1569 91.2275 21.68 88.2436 22.2158 85.187C22.3802 84.2491 22.5459 83.3044 22.7224 82.3633C23.4705 78.3769 24.4159 74.4553 26.3272 71.5082C30.1734 65.5777 36.9026 63.3607 43.2114 62.9314C46.3456 62.7181 49.3587 62.9466 51.8425 63.3644C54.3116 63.7797 56.3145 64.3919 57.3984 64.9751C58.3226 65.4724 59.4034 66.2366 60.6248 67.1C60.7633 67.198 60.9036 67.2972 61.0457 67.3974C62.4563 68.3924 64.0743 69.5133 65.9331 70.5807C69.6557 72.7185 74.2848 74.6074 80.026 74.8362C81.2509 74.8851 82.7489 74.43 84.5453 73.437C86.3167 72.4577 88.2625 71.0208 90.3706 69.2603C93.0613 67.0133 95.9738 64.2767 99.0908 61.3479C100.864 59.682 102.703 57.9539 104.605 56.2184C109.834 51.4473 115.521 46.6382 121.53 43.0199C127.523 39.4105 133.936 36.9247 140.621 36.9247C153.647 36.9247 160.789 39.1477 166.84 41.3603C167.425 41.5741 167.998 41.7871 168.564 41.9975C173.836 43.9572 178.502 45.6915 186.197 45.6915C190.273 45.6915 193.611 44.1734 196.577 41.7358C199.542 39.2994 202.045 36.018 204.475 32.6378C204.837 32.1347 205.197 31.6294 205.556 31.1246C207.601 28.2551 209.634 25.4029 211.875 23.0785C214.495 20.3616 217.504 18.2503 221.339 17.7408C225.069 17.2452 228.548 17.6838 231.892 18.6093C235.221 19.5311 238.452 20.9461 241.693 22.4256C242.105 22.6136 242.517 22.8026 242.93 22.9919C249.07 25.8073 255.322 28.6745 262.741 29.1072C266.491 29.326 270.005 27.8831 273.563 25.391C276.863 23.0804 280.074 19.9596 283.43 16.6971C283.677 16.4574 283.924 16.2171 284.173 15.9762C287.785 12.4704 291.576 8.86649 295.792 6.06581C300.003 3.26752 304.713 1.21957 310.185 0.91098L310.296 1.61867C305.265 1.90243 300.811 3.79365 296.675 6.54129C292.543 9.28655 288.805 12.8353 285.185 16.349C284.932 16.5945 284.679 16.8398 284.428 17.0847C281.089 20.3304 277.83 23.4977 274.468 25.8525Z" fill="#33FF00"/>
<defs>
<linearGradient id="paint0_linear_274_830" x1="155.68" y1="35.3844" x2="155.624" y2="128.951" gradientUnits="userSpaceOnUse">
<stop stop-color="#E757FF" stop-opacity="0.2"/>
<stop offset="1" stop-color="#E757FF" stop-opacity="0"/>
</linearGradient>
<linearGradient id="paint1_linear_274_830" x1="156.076" y1="52.9184" x2="156.005" y2="134.664" gradientUnits="userSpaceOnUse">
<stop stop-color="#518CFF" stop-opacity="0.2"/>
<stop offset="1" stop-color="#D9D9D9" stop-opacity="0"/>
</linearGradient>
<linearGradient id="paint2_linear_274_830" x1="155.68" y1="37.28" x2="155.751" y2="134.663" gradientUnits="userSpaceOnUse">
<stop stop-color="#86FF68" stop-opacity="0.2"/>
<stop offset="1" stop-color="#86FF68" stop-opacity="0"/>
</linearGradient>
</defs>
</svg>
