<svg width="314" height="135" viewBox="0 0 314 135" fill="none" xmlns="http://www.w3.org/2000/svg">
<path d="M39.0597 74.1491C19.6154 72.8107 1.52148 98.362 1.52148 98.362V133.891H313.169V34.8487C302.907 35.9437 296.966 77.1909 284.543 77.7993C272.12 78.4076 265.639 57.2365 251.326 58.6966C237.013 60.1567 233.772 37.6471 215.138 36.7954C196.504 35.9437 179.76 84.248 152.214 82.0578C124.668 79.8677 140.872 59.4266 119.537 56.9932C98.2026 54.5597 68.4961 94.1035 55.2632 91.9134C42.0303 89.7233 58.5039 75.4875 39.0597 74.1491Z" fill="url(#paint0_linear_274_830)"/>
<path fill-rule="evenodd" clip-rule="evenodd" d="M289.414 76.0161C288.018 77.226 286.427 78.0549 284.592 78.1448C281.168 78.3124 278.258 76.9738 275.658 75.0819C273.293 73.361 271.063 71.0915 268.832 68.8211C268.596 68.5808 268.36 68.3405 268.124 68.1009C265.637 65.5785 263.129 63.1244 260.369 61.3891C257.612 59.6554 254.713 58.7069 251.427 59.042C247.526 59.4399 244.443 58.1836 241.785 56.2287C239.315 54.4127 237.1 51.9127 234.829 49.3497C234.659 49.1585 234.49 48.967 234.32 48.7754C231.851 45.9955 229.28 43.1826 226.181 41.0101C223.088 38.8418 219.527 37.352 215.091 37.1493C212.998 37.0537 210.856 37.6436 208.618 38.8477C206.383 40.05 204.127 41.826 201.827 44.0028C198.186 47.4498 194.495 51.8417 190.639 56.4295C189.623 57.6384 188.595 58.8609 187.554 60.0833C182.577 65.9279 177.293 71.765 171.514 76.0046C165.753 80.2304 159.353 82.9744 152.133 82.4005C145.096 81.8411 140.788 80.1053 137.995 77.7555C135.229 75.4278 133.987 72.5254 132.958 69.6841C132.819 69.2998 132.684 68.9169 132.549 68.5365C131.681 66.0759 130.849 63.7215 129.23 61.7799C127.389 59.5717 124.545 57.9217 119.423 57.3376C116.924 57.0528 114.263 57.3768 111.459 58.1986C108.652 59.021 105.739 60.3318 102.765 61.9844C96.8167 65.2905 90.7181 69.9123 84.8427 74.5666C83.6107 75.5426 82.3882 76.5203 81.1792 77.4872C76.6383 81.1186 72.288 84.5976 68.3395 87.2625C65.8397 88.9497 63.4717 90.3311 61.29 91.2229C59.1263 92.1074 57.0192 92.5616 55.1005 92.2441C53.3431 91.9533 52.0444 91.4555 51.1043 90.7935C50.1694 90.1351 49.6193 89.3357 49.2956 88.4677C48.7767 87.0765 48.8214 85.4381 48.8655 83.8202C48.8757 83.4447 48.8859 83.0703 48.889 82.7004C48.9059 80.6971 48.72 78.8084 47.4021 77.3394C46.1177 75.9079 43.7001 74.8183 38.9894 74.4941C34.3672 74.176 29.753 75.4516 25.3775 77.631C21.0097 79.8064 16.962 82.8426 13.4994 85.9394C10.0402 89.0331 7.18285 92.171 5.18948 94.537C4.19319 95.7196 3.41363 96.7082 2.88351 97.4007C2.61847 97.7469 2.41584 98.0191 2.2797 98.2043C2.21162 98.2969 2.16018 98.3678 2.12588 98.4154L2.08734 98.469L2.07783 98.4824L2.07553 98.4856L2.07501 98.4864C2.07491 98.4865 2.07489 98.4865 1.5207 98.3492C0.966505 98.2118 0.96662 98.2117 0.966803 98.2114L0.967516 98.2104L0.970178 98.2067L0.980436 98.1923L1.02052 98.1365C1.05587 98.0875 1.1084 98.0151 1.1776 97.9209C1.316 97.7326 1.52109 97.4572 1.78878 97.1075C2.32414 96.4082 3.11008 95.4115 4.11391 94.22C6.12078 91.8379 9.00223 88.6728 12.497 85.5473C15.9884 82.4248 20.11 79.3253 24.6035 77.0872C29.0893 74.853 34.0284 73.4371 39.1283 73.7881C44.1397 74.133 46.9545 75.3243 48.4636 77.0062C49.939 78.6507 50.1076 80.7079 50.0908 82.7039C50.0874 83.0963 50.0771 83.486 50.0669 83.871C50.0242 85.483 49.9837 87.0131 50.4691 88.3145C50.7656 89.1096 51.2514 89.7919 52.0245 90.3363C52.7923 90.8769 53.8735 91.3029 55.4243 91.5595C56.8138 91.7895 58.5298 91.4871 60.6068 90.6381C62.6659 89.7965 64.9564 88.4673 67.4358 86.794C71.348 84.1536 75.6576 80.7072 80.1941 77.0794C81.4075 76.109 82.6372 75.1257 83.8798 74.1413C89.7519 69.4896 95.9073 64.8205 101.942 61.4663C104.961 59.7888 107.972 58.4271 110.925 57.5616C113.881 56.6955 116.815 56.3163 119.65 56.6397C125.196 57.2721 128.326 59.089 130.308 61.4655C132 63.4949 132.866 65.9499 133.73 68.4011C133.863 68.7798 133.997 69.1584 134.133 69.5353C135.164 72.381 136.369 75.1506 138.979 77.3467C141.562 79.5206 145.558 81.1606 152.294 81.696C158.847 82.217 164.87 79.7453 170.578 75.5584C176.267 71.3852 181.5 65.6124 186.481 59.7635C187.513 58.5517 188.534 57.3364 189.546 56.1319C193.406 51.5398 197.132 47.1055 200.808 43.6261C203.129 41.4294 205.454 39.5891 207.809 38.3219C210.161 37.0564 212.618 36.3234 215.184 36.4406C220.065 36.6637 223.896 38.3064 227.099 40.5517C230.296 42.7927 232.923 45.6745 235.383 48.4448C235.548 48.63 235.712 48.8147 235.875 48.9986C238.167 51.5848 240.329 54.0241 242.721 55.7832C245.278 57.664 247.968 58.6735 251.223 58.3415C255.094 57.9467 258.373 59.0966 261.244 60.9021C264.113 62.706 266.686 65.2319 269.162 67.7428C269.397 67.9812 269.631 68.2196 269.865 68.4572C272.108 70.7398 274.289 72.9587 276.59 74.6335C279.147 76.4936 281.705 77.5728 284.493 77.4364C285.763 77.3742 287.076 76.7813 288.422 75.6153C289.752 74.4633 291.023 72.8303 292.249 70.8557C294.699 66.9093 296.92 61.6833 299.082 56.4182C299.314 55.852 299.546 55.2853 299.777 54.7198C301.693 50.038 303.576 45.4351 305.541 41.8257C306.642 39.804 307.779 38.0742 308.978 36.8094C309.577 36.1769 310.204 35.6473 310.867 35.2538C311.529 34.8607 312.259 34.5846 313.062 34.4988L313.275 35.1984C312.796 35.2495 312.277 35.4238 311.718 35.7555C311.16 36.0865 310.595 36.5558 310.026 37.1569C308.887 38.3594 307.779 40.0357 306.685 42.0436C304.734 45.6262 302.863 50.2013 300.944 54.8895C300.714 55.4539 300.482 56.0199 300.25 56.5859C298.091 61.8434 295.855 67.1097 293.377 71.1008C292.139 73.0949 290.827 74.7921 289.414 76.0161Z" fill="#DB00FF"/>
<path d="M47.0379 70.6741C20.0996 72.3327 1.52148 98.1594 1.52148 98.1594V134.128H313.57L313.169 29.683C313.169 29.683 295.056 50.297 271.833 49.5862C248.611 48.8754 260.222 37.5021 239.786 29.683C219.35 21.8639 200.307 62.855 186.838 58.3531C173.369 53.8512 170.582 42.241 152.933 43.1887C135.284 44.1365 136.213 77.5454 104.63 80.6256C73.0473 83.7059 73.9762 69.0155 47.0379 70.6741Z" fill="url(#paint1_linear_274_830)"/>
<path fill-rule="evenodd" clip-rule="evenodd" d="M192.456 58.3957C190.485 59.1144 188.474 59.3088 186.541 58.6627C183.085 57.5077 180.332 55.9025 177.879 54.1803C176.652 53.3192 175.495 52.4251 174.364 51.5415C174.227 51.4349 174.091 51.3284 173.955 51.2222C172.963 50.446 171.986 49.6822 170.984 48.9513C168.706 47.2885 166.336 45.825 163.476 44.832C160.632 43.8444 157.274 43.3126 152.985 43.5429C148.918 43.7613 145.799 45.8575 142.913 49.168C140.834 51.5534 138.948 54.4806 136.934 57.6057C136.168 58.7943 135.384 60.0115 134.563 61.2384C131.6 65.6701 128.179 70.2042 123.495 73.8261C118.801 77.4551 112.814 80.1876 104.726 80.9765C96.7504 81.7544 90.7878 81.4135 85.9076 80.4752C81.0353 79.5383 77.2837 78.0131 73.7342 76.4695C73.3282 76.2929 72.9251 76.1163 72.5235 75.9403C69.3993 74.571 66.3656 73.2415 62.715 72.2877C58.6192 71.2177 53.7318 70.6193 47.098 71.0278C40.5173 71.4329 34.4122 73.3167 28.9379 75.9445C23.4646 78.5719 18.6528 81.9283 14.6654 85.2449C10.6797 88.56 7.52963 91.8254 5.37562 94.2629C4.29894 95.4812 3.47193 96.4918 2.9146 97.1971C2.63595 97.5497 2.42476 97.826 2.28353 98.0136C2.21292 98.1075 2.1598 98.1792 2.12448 98.2272C2.10682 98.2512 2.09362 98.2693 2.0849 98.2813L2.0752 98.2947L2.07237 98.2986C2.07228 98.2987 2.07227 98.2987 1.51937 98.1596C0.966477 98.0204 0.966605 98.0202 0.966804 98.02L0.970337 98.0151L0.980979 98.0004C0.990329 97.9876 1.00418 97.9686 1.0225 97.9437C1.05913 97.8939 1.11362 97.8203 1.18565 97.7246C1.32971 97.5332 1.54397 97.2529 1.82593 96.8961C2.38982 96.1825 3.22468 95.1624 4.31061 93.9336C6.48182 91.4767 9.6599 88.1818 13.686 84.8329C17.7105 81.4855 22.5941 78.0743 28.1806 75.3926C33.7661 72.7114 40.0851 70.7449 46.9736 70.3208C53.8089 69.8999 58.9072 70.5159 63.2006 71.6375C66.9818 72.6254 70.1269 74.0044 73.2404 75.3696C73.6424 75.5459 74.0438 75.7219 74.4461 75.8968C77.9795 77.4335 81.6011 78.8997 86.2791 79.7991C90.9492 80.6971 96.7141 81.0375 104.53 80.2752C112.233 79.5239 117.973 76.9253 122.54 73.3942C127.116 69.8559 130.488 65.401 133.446 60.977C134.25 59.7741 135.025 58.5716 135.786 57.3911C137.809 54.2506 139.733 51.2657 141.845 48.8423C144.736 45.5258 148.119 43.0905 152.877 42.835C157.413 42.5914 161.022 43.1555 164.085 44.2189C167.132 45.277 169.61 46.8196 171.918 48.5037C172.933 49.2446 173.923 50.0187 174.915 50.7939C175.05 50.9 175.186 51.0062 175.322 51.1123C176.453 51.9956 177.593 52.8767 178.798 53.7223C181.207 55.4136 183.853 56.9478 187.132 58.0438C188.566 58.5231 190.096 58.4214 191.825 57.7907C193.579 57.1509 195.453 55.9919 197.441 54.4571C200.515 52.0832 203.757 48.8947 207.159 45.5482C208.154 44.5698 209.163 43.5779 210.185 42.5889C214.679 38.2396 219.436 33.9479 224.375 31.2368C226.847 29.8797 229.409 28.8936 232.05 28.5097C234.719 28.1219 237.421 28.3559 240.11 29.3848C249.521 32.9855 252.272 37.3486 254.593 41.028C254.839 41.4177 255.079 41.7997 255.323 42.1723C256.597 44.1219 257.918 45.7816 260.295 47.0084C262.659 48.2279 266.141 49.0563 271.862 49.2314C283.173 49.5777 293.339 44.7221 300.754 39.6684C304.444 37.1532 307.417 34.614 309.467 32.7026C310.492 31.7473 311.285 30.9498 311.821 30.3919C312.09 30.1129 312.294 29.8939 312.43 29.745C312.498 29.6706 312.55 29.6137 312.584 29.5757L312.622 29.5329L312.631 29.5224L312.634 29.5199L312.634 29.5194C312.634 29.5193 312.634 29.5193 313.1 29.6626L313.167 29.6832C313.701 29.8471 313.7 29.8473 313.7 29.8475L313.699 29.8484L313.686 29.8634L313.645 29.909C313.61 29.9489 313.556 30.0077 313.486 30.084C313.346 30.2368 313.138 30.46 312.866 30.7433C312.321 31.3099 311.518 32.1173 310.482 33.0834C308.41 35.015 305.402 37.5849 301.661 40.1343C294.214 45.2099 283.712 50.3059 271.8 49.9413C265.91 49.761 262.135 48.9012 259.505 47.544C256.89 46.194 255.483 44.3884 254.202 42.4285C253.956 42.0515 253.713 41.6675 253.467 41.2779C251.15 37.6094 248.523 33.4504 239.457 29.9816C237.038 29.0558 234.674 28.8603 232.337 29.2C229.973 29.5435 227.589 30.4419 225.192 31.7578C220.392 34.3927 215.714 38.6014 211.21 42.9597C210.203 43.9343 209.204 44.9166 208.215 45.8892C204.806 49.2429 201.514 52.4805 198.395 54.8894C196.384 56.4422 194.401 57.686 192.456 58.3957Z" fill="#518CFF"/>
<path d="M27.1622 71.1009C19.5626 82.6939 27.1622 109.959 1.52539 97.4015L1.92597 134.128H313.574V0.729004C292.343 1.91372 281.928 29.8729 265.505 28.9252C249.081 27.9774 238.266 15.6564 223.845 17.5519C209.424 19.4475 205.819 45.5111 188.194 45.5111C170.568 45.5111 168.165 36.7443 142.128 36.7443C116.09 36.7443 92.8567 75.1289 80.8394 74.6551C68.8221 74.1812 61.6118 66.836 57.606 64.7035C53.6003 62.571 34.7732 59.4907 27.1622 71.1009Z" fill="url(#paint2_linear_274_830)"/>
<path fill-rule="evenodd" clip-rule="evenodd" d="M277.416 25.3168C273.778 27.8376 269.869 29.5342 265.447 29.279C257.59 28.8256 251.004 25.8345 244.87 23.049C244.431 22.8496 243.994 22.6512 243.56 22.4549C240.277 20.9726 237.108 19.6036 233.876 18.7187C230.659 17.8375 227.416 17.4468 223.976 17.899C220.642 18.3372 217.825 20.1947 215.19 22.8978C212.964 25.1816 210.944 27.9868 208.875 30.8588C208.51 31.3655 208.143 31.8744 207.774 32.3828C205.323 35.7555 202.745 39.1084 199.658 41.6183C196.573 44.1268 192.886 45.8666 188.194 45.8666C180.06 45.8666 175.067 44.0285 169.743 42.0683C169.168 41.8566 168.589 41.6434 168.002 41.431C162.001 39.2601 155 37.0998 142.128 37.0998C135.866 37.0998 129.68 39.412 123.683 42.985C117.702 46.5489 112.009 51.3064 106.729 56.0723C104.829 57.7872 102.98 59.5056 101.192 61.168C98.0264 64.1104 95.0498 66.8773 92.313 69.1384C90.1689 70.9099 88.1455 72.394 86.2636 73.4232C84.4068 74.4387 82.5661 75.0794 80.7999 75.0098C74.5856 74.7647 69.6509 72.7441 65.8026 70.5577C63.8759 69.463 62.2066 68.3181 60.7783 67.3213C60.6376 67.2231 60.4995 67.1265 60.3639 67.0318C59.1088 66.1542 58.0734 65.4303 57.2045 64.9678C56.2972 64.4847 54.4661 63.9122 52.0672 63.513C49.6833 63.1163 46.7953 62.9006 43.8045 63.1019C37.8635 63.5019 31.4461 65.5498 27.7229 71.2295C25.855 74.0789 24.9106 77.9129 24.1531 81.9068C23.9774 82.8334 23.8117 83.7686 23.6466 84.7006C23.1038 87.7646 22.567 90.7952 21.6975 93.3773C21.1297 95.0636 20.4136 96.5805 19.4441 97.806C18.4762 99.0293 17.2288 99.996 15.5661 100.532C13.8831 101.075 11.8696 101.147 9.49092 100.691C7.12801 100.237 4.37501 99.2587 1.14258 97.6754L1.90906 97.1279C5.08584 98.684 7.70341 99.6004 9.86164 100.014C12.0041 100.425 13.6623 100.337 14.9908 99.9083C16.3395 99.4733 17.4434 98.6577 18.3556 97.5047C19.2663 96.3537 19.9594 94.9001 20.5189 93.2385C21.3765 90.6917 21.9052 87.7079 22.4468 84.6513C22.613 83.7134 22.7804 82.7687 22.9589 81.8276C23.715 77.8412 24.6705 73.9196 26.6025 70.9725C30.4901 65.042 37.2918 62.825 43.6685 62.3957C46.8365 62.1824 49.8821 62.4109 52.3927 62.8287C54.8884 63.244 56.9128 63.8562 58.0084 64.4394C58.9426 64.9367 60.0351 65.7009 61.2695 66.5643C61.4096 66.6623 61.5514 66.7615 61.695 66.8617C63.1208 67.8567 64.7562 68.9776 66.6351 70.045C70.3977 72.1828 75.0768 74.0717 80.8798 74.3005C82.1179 74.3493 83.632 73.8943 85.4477 72.9013C87.2383 71.922 89.205 70.4851 91.3358 68.7246C94.0555 66.4776 96.9994 63.741 100.15 60.8122C101.942 59.1463 103.801 57.4182 105.724 55.6827C111.009 50.9116 116.758 46.1025 122.831 42.4842C128.889 38.8748 135.371 36.389 142.128 36.389C155.294 36.389 162.513 38.612 168.629 40.8246C169.22 41.0383 169.799 41.2514 170.371 41.4618C175.701 43.4215 180.417 45.1558 188.194 45.1558C192.315 45.1558 195.688 43.6377 198.687 41.2001C201.683 38.7637 204.213 35.4822 206.669 32.1021C207.035 31.599 207.399 31.0937 207.763 30.5889C209.829 27.7194 211.884 24.8672 214.149 22.5428C216.797 19.8259 219.839 17.7146 223.715 17.2051C227.485 16.7095 231.002 17.1481 234.381 18.0736C237.747 18.9954 241.012 20.4104 244.289 21.8899C244.705 22.0779 245.122 22.2669 245.539 22.4562C251.745 25.2716 258.064 28.1387 265.564 28.5715C269.354 28.7902 272.905 27.3474 276.502 24.8553C279.837 22.5447 283.083 19.4239 286.476 16.1614C286.725 15.9217 286.975 15.6813 287.226 15.4405C290.877 11.9347 294.709 8.33078 298.97 5.53011C303.227 2.73182 307.988 0.683863 313.518 0.375275L313.631 1.08296C308.546 1.36673 304.043 3.25794 299.863 6.00559C295.687 8.75084 291.908 12.2996 288.249 15.8133C287.993 16.0588 287.738 16.3041 287.483 16.549C284.109 19.7947 280.815 22.962 277.416 25.3168Z" fill="#33FF00"/>
<defs>
<linearGradient id="paint0_linear_274_830" x1="157.345" y1="34.8487" x2="157.291" y2="128.415" gradientUnits="userSpaceOnUse">
<stop stop-color="#E757FF" stop-opacity="0.2"/>
<stop offset="1" stop-color="#E757FF" stop-opacity="0"/>
</linearGradient>
<linearGradient id="paint1_linear_274_830" x1="157.746" y1="52.3827" x2="157.676" y2="134.128" gradientUnits="userSpaceOnUse">
<stop stop-color="#518CFF" stop-opacity="0.2"/>
<stop offset="1" stop-color="#D9D9D9" stop-opacity="0"/>
</linearGradient>
<linearGradient id="paint2_linear_274_830" x1="157.349" y1="36.7443" x2="157.419" y2="134.128" gradientUnits="userSpaceOnUse">
<stop stop-color="#86FF68" stop-opacity="0.2"/>
<stop offset="1" stop-color="#86FF68" stop-opacity="0"/>
</linearGradient>
</defs>
</svg>
