<svg width="40" height="40" viewBox="0 0 40 40" fill="none" xmlns="http://www.w3.org/2000/svg">
<path fill-rule="evenodd" clip-rule="evenodd" d="M6 10C6 8.89543 6.89543 8 8 8H32C33.1046 8 34 8.89543 34 10C34 11.1046 33.1046 12 32 12H8C6.89543 12 6 11.1046 6 10Z" fill="black"/>
<path fill-rule="evenodd" clip-rule="evenodd" d="M6 20C6 18.8954 6.89543 18 8 18H32C33.1046 18 34 18.8954 34 20C34 21.1046 33.1046 22 32 22H8C6.89543 22 6 21.1046 6 20Z" fill="black"/>
<path fill-rule="evenodd" clip-rule="evenodd" d="M18 30C18 28.8954 18.8954 28 20 28H32C33.1046 28 34 28.8954 34 30C34 31.1046 33.1046 32 32 32H20C18.8954 32 18 31.1046 18 30Z" fill="black"/>
</svg>
