<svg width="40" height="41" viewBox="0 0 40 41" fill="none" xmlns="http://www.w3.org/2000/svg">
<path fill-rule="evenodd" clip-rule="evenodd" d="M6 10.5C6 9.39543 6.89543 8.5 8 8.5H32C33.1046 8.5 34 9.39543 34 10.5C34 11.6046 33.1046 12.5 32 12.5H8C6.89543 12.5 6 11.6046 6 10.5Z" fill="black"/>
<path fill-rule="evenodd" clip-rule="evenodd" d="M6 20.5C6 19.3954 6.89543 18.5 8 18.5H32C33.1046 18.5 34 19.3954 34 20.5C34 21.6046 33.1046 22.5 32 22.5H8C6.89543 22.5 6 21.6046 6 20.5Z" fill="black"/>
<path fill-rule="evenodd" clip-rule="evenodd" d="M18 30.5C18 29.3954 18.8954 28.5 20 28.5H32C33.1046 28.5 34 29.3954 34 30.5C34 31.6046 33.1046 32.5 32 32.5H20C18.8954 32.5 18 31.6046 18 30.5Z" fill="black"/>
</svg>
