<svg width="28" height="25" viewBox="0 0 28 25" fill="none" xmlns="http://www.w3.org/2000/svg">
<path fill-rule="evenodd" clip-rule="evenodd" d="M0 2.5C0 1.39543 0.89543 0.5 2 0.5H26C27.1046 0.5 28 1.39543 28 2.5C28 3.60457 27.1046 4.5 26 4.5H2C0.89543 4.5 0 3.60457 0 2.5Z" fill="black"/>
<path fill-rule="evenodd" clip-rule="evenodd" d="M0 12.5C0 11.3954 0.89543 10.5 2 10.5H26C27.1046 10.5 28 11.3954 28 12.5C28 13.6046 27.1046 14.5 26 14.5H2C0.89543 14.5 0 13.6046 0 12.5Z" fill="black"/>
<path fill-rule="evenodd" clip-rule="evenodd" d="M12 22.5C12 21.3954 12.8954 20.5 14 20.5H26C27.1046 20.5 28 21.3954 28 22.5C28 23.6046 27.1046 24.5 26 24.5H14C12.8954 24.5 12 23.6046 12 22.5Z" fill="black"/>
</svg>
