<svg width="24" height="25" viewBox="0 0 24 25" fill="none" xmlns="http://www.w3.org/2000/svg">
<g clip-path="url(#clip0_275_1009)">
<path d="M5.625 6.50198C5.625 6.03198 5.6122 5.58839 5.6274 5.14559C5.6874 3.40679 6.487 2.11358 8.0246 1.28199C8.2522 1.15879 8.5038 1.07278 8.7522 0.995585C9.1078 0.884785 9.4046 1.03559 9.5054 1.35318C9.6066 1.67318 9.451 1.95519 9.0934 2.07519C7.8874 2.47919 7.1198 3.28999 6.8506 4.52599C6.7666 4.91079 6.7914 5.32038 6.7758 5.71878C6.7662 5.97119 6.7738 6.22398 6.7738 6.48918C7.6682 6.48918 8.5458 6.48918 9.455 6.48918C9.455 6.41798 9.4538 6.34518 9.4554 6.27198C9.4674 5.72038 9.4414 5.16478 9.5002 4.61798C9.6974 2.78478 11.1318 1.25158 12.9578 0.881185C15.4222 0.381585 17.7898 1.97759 18.1974 4.44919C18.2894 5.00759 18.247 5.58758 18.265 6.15798C18.2682 6.26438 18.2654 6.37078 18.2654 6.50118C18.351 6.50118 18.419 6.50118 18.487 6.50118C19.1446 6.50118 19.8018 6.50038 20.4594 6.50158C20.8742 6.50238 21.073 6.68598 21.1402 7.09358C21.3826 8.56438 21.6314 10.0344 21.8774 11.5048C22.1434 13.094 22.4086 14.6832 22.675 16.2724C22.9206 17.7364 23.1678 19.2 23.4142 20.664C23.607 21.8088 23.8014 22.9532 23.9906 24.0988C24.053 24.4752 23.7666 24.7832 23.3586 24.7836C21.6798 24.7852 20.001 24.7844 18.3222 24.7844C15.3346 24.7844 12.3474 24.7828 9.3598 24.7864C9.0782 24.7868 8.8206 24.7316 8.5694 24.6028C7.929 24.274 7.2882 23.9452 6.6374 23.638C5.669 23.1808 4.6986 23.2116 3.7418 23.684C3.1078 23.9972 2.477 24.3168 1.845 24.6348C1.3866 24.8656 0.939398 24.8404 0.525398 24.5452C0.111398 24.25 -0.0630022 23.8352 0.0185978 23.3312C0.198198 22.2228 0.384598 21.1156 0.568998 20.008C0.850598 18.3184 1.1322 16.6292 1.4154 14.9396C1.6618 13.4692 1.9106 11.9996 2.1578 10.5292C2.3534 9.36558 2.5474 8.20158 2.7442 7.03838C2.8034 6.68879 3.0226 6.50318 3.3758 6.50198C4.0462 6.49958 4.7162 6.50118 5.3866 6.50118C5.457 6.50198 5.5266 6.50198 5.625 6.50198ZM5.8166 22.2016C5.8862 22.2168 5.935 22.2296 5.9846 22.2376C6.4486 22.3108 6.885 22.462 7.3026 22.6768C7.8918 22.98 8.4862 23.2732 9.0798 23.5676C9.1378 23.5964 9.2082 23.6008 9.2726 23.6164C9.2822 23.5452 9.3102 23.4708 9.299 23.4028C9.093 22.1508 8.8834 20.8996 8.673 19.648C8.3462 17.7024 8.0178 15.7568 7.691 13.8108C7.3558 11.8148 7.0198 9.81918 6.6906 7.82238C6.6666 7.67558 6.6102 7.64078 6.4702 7.64158C5.6402 7.64758 4.8106 7.64438 3.9806 7.64518C3.9254 7.64518 3.8706 7.65318 3.813 7.65758C3.7958 7.73198 3.7782 7.79278 3.7678 7.85478C3.543 9.20638 3.3186 10.5584 3.0946 11.9104C2.7678 13.882 2.4426 15.8536 2.115 17.8252C1.805 19.6904 1.4922 21.5548 1.1834 23.42C1.1726 23.4848 1.1906 23.5544 1.1954 23.622C1.2666 23.6104 1.3454 23.6148 1.4074 23.5844C1.8254 23.3804 2.2414 23.172 2.6554 22.96C3.2234 22.6692 3.7898 22.37 4.4306 22.2744C4.629 22.2448 4.6714 22.1724 4.671 21.9868C4.6658 18.6668 4.667 15.3472 4.6674 12.0272C4.6674 11.9512 4.6646 11.8748 4.6702 11.7988C4.6966 11.4176 5.059 11.176 5.4238 11.2944C5.6918 11.3816 5.8166 11.584 5.8166 11.9392C5.817 15.278 5.817 18.6172 5.817 21.956C5.8166 22.032 5.8166 22.1076 5.8166 22.2016ZM13.3058 6.49278C13.269 5.60998 13.4114 4.73479 13.0478 3.89999C12.9094 3.58198 13.0626 3.25838 13.3614 3.14638C13.6594 3.03438 13.9882 3.17358 14.1002 3.50118C14.2206 3.85359 14.3458 4.21558 14.3826 4.58198C14.439 5.14198 14.4214 5.70918 14.4346 6.27358C14.4362 6.34638 14.435 6.41918 14.435 6.48798C15.3454 6.48798 16.2234 6.48798 17.1166 6.48798C17.1166 6.19638 17.125 5.91798 17.1146 5.63999C17.1002 5.26039 17.119 4.87118 17.0394 4.50398C16.6678 2.78878 15.1182 1.73278 13.3646 1.97038C11.9898 2.15678 10.811 3.30479 10.6542 4.67199C10.5866 5.26119 10.6222 5.86238 10.6122 6.45798C10.6122 6.46758 10.6258 6.47798 10.643 6.50118C11.469 6.50118 12.3042 6.50118 13.1398 6.50078C13.1834 6.50159 13.227 6.49718 13.3058 6.49278ZM16.3666 17.4396C16.4362 17.4324 16.5062 17.428 16.5754 17.418C17.0138 17.3548 17.3466 17.1008 17.6626 16.8176C17.895 16.6096 18.1218 16.396 18.3586 16.1932C18.5166 16.0576 18.691 16.038 18.8926 16.124C19.2358 16.27 19.555 16.154 19.6854 15.8576C19.8214 15.5492 19.6894 15.2356 19.3474 15.0784C18.6974 14.7792 18.1022 14.894 17.5658 15.3412C17.3218 15.5448 17.103 15.778 16.863 15.9868C16.3914 16.3972 16.243 16.3956 15.8114 15.9384C15.5234 15.6336 15.2782 15.2884 14.9858 14.9884C14.7262 14.722 14.4538 14.4516 14.1402 14.2576C13.6446 13.9512 13.0898 14.0296 12.7194 14.4636C12.2454 15.0188 11.8038 15.604 11.381 16.1992C11.129 16.554 11.387 17.0204 11.821 17.0536C12.0522 17.0712 12.2234 16.962 12.3578 16.7816C12.6954 16.3272 13.0318 15.8724 13.3742 15.422C13.5314 15.2152 13.5714 15.208 13.765 15.3876C13.9414 15.5516 14.0994 15.7356 14.2618 15.9144C14.5782 16.2624 14.8762 16.6284 15.2106 16.9576C15.523 17.2648 15.9134 17.4368 16.3666 17.4396Z" fill="#B5B3B3"/>
</g>
<defs>
<clipPath id="clip0_275_1009">
<rect width="24" height="24" fill="white" transform="translate(0 0.789978)"/>
</clipPath>
</defs>
</svg>
