<svg width="24" height="25" viewBox="0 0 24 25" fill="none" xmlns="http://www.w3.org/2000/svg">
<g clip-path="url(#clip0_281_1220)">
<path d="M5.625 5.84296C5.625 5.37296 5.6122 4.92936 5.6274 4.48656C5.6874 2.74776 6.487 1.45456 8.0246 0.622958C8.2522 0.499758 8.5038 0.413758 8.7522 0.336558C9.1078 0.225758 9.4046 0.376558 9.5054 0.694158C9.6066 1.01416 9.451 1.29616 9.0934 1.41616C7.8874 1.82016 7.1198 2.63096 6.8506 3.86696C6.7666 4.25176 6.7914 4.66136 6.7758 5.05976C6.7662 5.31216 6.7738 5.56496 6.7738 5.83016C7.6682 5.83016 8.5458 5.83016 9.455 5.83016C9.455 5.75896 9.4538 5.68616 9.4554 5.61296C9.4674 5.06136 9.4414 4.50576 9.5002 3.95896C9.6974 2.12576 11.1318 0.592558 12.9578 0.222158C15.4222 -0.277442 17.7898 1.31856 18.1974 3.79016C18.2894 4.34856 18.247 4.92856 18.265 5.49896C18.2682 5.60536 18.2654 5.71176 18.2654 5.84216C18.351 5.84216 18.419 5.84216 18.487 5.84216C19.1446 5.84216 19.8018 5.84136 20.4594 5.84256C20.8742 5.84336 21.073 6.02696 21.1402 6.43456C21.3826 7.90536 21.6314 9.37536 21.8774 10.8458C22.1434 12.435 22.4086 14.0242 22.675 15.6134C22.9206 17.0774 23.1678 18.541 23.4142 20.005C23.607 21.1498 23.8014 22.2942 23.9906 23.4398C24.053 23.8162 23.7666 24.1242 23.3586 24.1246C21.6798 24.1262 20.001 24.1254 18.3222 24.1254C15.3346 24.1254 12.3474 24.1238 9.3598 24.1274C9.0782 24.1278 8.8206 24.0726 8.5694 23.9438C7.929 23.615 7.2882 23.2862 6.6374 22.979C5.669 22.5218 4.6986 22.5526 3.7418 23.025C3.1078 23.3382 2.477 23.6578 1.845 23.9758C1.3866 24.2066 0.939398 24.1814 0.525398 23.8862C0.111398 23.591 -0.0630022 23.1762 0.0185978 22.6722C0.198198 21.5638 0.384598 20.4566 0.568998 19.349C0.850598 17.6594 1.1322 15.9702 1.4154 14.2806C1.6618 12.8102 1.9106 11.3406 2.1578 9.87016C2.3534 8.70656 2.5474 7.54256 2.7442 6.37936C2.8034 6.02976 3.0226 5.84416 3.3758 5.84296C4.0462 5.84056 4.7162 5.84216 5.3866 5.84216C5.457 5.84296 5.5266 5.84296 5.625 5.84296ZM5.8166 21.5426C5.8862 21.5578 5.935 21.5706 5.9846 21.5786C6.4486 21.6518 6.885 21.803 7.3026 22.0178C7.8918 22.321 8.4862 22.6142 9.0798 22.9086C9.1378 22.9374 9.2082 22.9418 9.2726 22.9574C9.2822 22.8862 9.3102 22.8118 9.299 22.7438C9.093 21.4918 8.8834 20.2406 8.673 18.989C8.3462 17.0434 8.0178 15.0978 7.691 13.1518C7.3558 11.1558 7.0198 9.16016 6.6906 7.16336C6.6666 7.01656 6.6102 6.98176 6.4702 6.98256C5.6402 6.98856 4.8106 6.98536 3.9806 6.98616C3.9254 6.98616 3.8706 6.99416 3.813 6.99856C3.7958 7.07296 3.7782 7.13376 3.7678 7.19576C3.543 8.54736 3.3186 9.89936 3.0946 11.2514C2.7678 13.223 2.4426 15.1946 2.115 17.1662C1.805 19.0314 1.4922 20.8958 1.1834 22.761C1.1726 22.8258 1.1906 22.8954 1.1954 22.963C1.2666 22.9514 1.3454 22.9558 1.4074 22.9254C1.8254 22.7214 2.2414 22.513 2.6554 22.301C3.2234 22.0102 3.7898 21.711 4.4306 21.6154C4.629 21.5858 4.6714 21.5134 4.671 21.3278C4.6658 18.0078 4.667 14.6882 4.6674 11.3682C4.6674 11.2922 4.6646 11.2158 4.6702 11.1398C4.6966 10.7586 5.059 10.517 5.4238 10.6354C5.6918 10.7226 5.8166 10.925 5.8166 11.2802C5.817 14.619 5.817 17.9582 5.817 21.297C5.8166 21.373 5.8166 21.4486 5.8166 21.5426ZM13.3058 5.83376C13.269 4.95096 13.4114 4.07576 13.0478 3.24096C12.9094 2.92296 13.0626 2.59936 13.3614 2.48736C13.6594 2.37536 13.9882 2.51456 14.1002 2.84216C14.2206 3.19456 14.3458 3.55656 14.3826 3.92296C14.439 4.48296 14.4214 5.05016 14.4346 5.61456C14.4362 5.68736 14.435 5.76016 14.435 5.82896C15.3454 5.82896 16.2234 5.82896 17.1166 5.82896C17.1166 5.53736 17.125 5.25896 17.1146 4.98096C17.1002 4.60136 17.119 4.21216 17.0394 3.84496C16.6678 2.12976 15.1182 1.07376 13.3646 1.31136C11.9898 1.49776 10.811 2.64576 10.6542 4.01296C10.5866 4.60216 10.6222 5.20336 10.6122 5.79896C10.6122 5.80856 10.6258 5.81896 10.643 5.84216C11.469 5.84216 12.3042 5.84216 13.1398 5.84176C13.1834 5.84256 13.227 5.83816 13.3058 5.83376ZM16.3666 16.7806C16.4362 16.7734 16.5062 16.769 16.5754 16.759C17.0138 16.6958 17.3466 16.4418 17.6626 16.1586C17.895 15.9506 18.1218 15.737 18.3586 15.5342C18.5166 15.3986 18.691 15.379 18.8926 15.465C19.2358 15.611 19.555 15.495 19.6854 15.1986C19.8214 14.8902 19.6894 14.5766 19.3474 14.4194C18.6974 14.1202 18.1022 14.235 17.5658 14.6822C17.3218 14.8858 17.103 15.119 16.863 15.3278C16.3914 15.7382 16.243 15.7366 15.8114 15.2794C15.5234 14.9746 15.2782 14.6294 14.9858 14.3294C14.7262 14.063 14.4538 13.7926 14.1402 13.5986C13.6446 13.2922 13.0898 13.3706 12.7194 13.8046C12.2454 14.3598 11.8038 14.945 11.381 15.5402C11.129 15.895 11.387 16.3614 11.821 16.3946C12.0522 16.4122 12.2234 16.303 12.3578 16.1226C12.6954 15.6682 13.0318 15.2134 13.3742 14.763C13.5314 14.5562 13.5714 14.549 13.765 14.7286C13.9414 14.8926 14.0994 15.0766 14.2618 15.2554C14.5782 15.6034 14.8762 15.9694 15.2106 16.2986C15.523 16.6058 15.9134 16.7778 16.3666 16.7806Z" fill="white"/>
</g>
<defs>
<clipPath id="clip0_281_1220">
<rect width="24" height="24" fill="white" transform="translate(0 0.130951)"/>
</clipPath>
</defs>
</svg>
