<svg width="24" height="25" viewBox="0 0 24 25" fill="none" xmlns="http://www.w3.org/2000/svg">
<g clip-path="url(#clip0_275_1011)">
<path d="M12.0167 18.7884C13.0143 18.7884 13.9951 18.7884 15.0007 18.7884C15.0007 17.0416 15.0007 15.3012 15.0007 13.5504C17.5123 13.5504 19.9991 13.5504 22.4991 13.5504C22.4991 16.7928 22.4991 20.03 22.4991 23.2836C20.0119 23.2836 17.5211 23.2836 15.0115 23.2836C15.0115 22.048 15.0115 20.8124 15.0115 19.546C14.9215 19.546 14.8499 19.546 14.7779 19.546C13.7643 19.546 12.7511 19.5464 11.7375 19.5456C11.3775 19.5456 11.2511 19.4196 11.2511 19.0612C11.2507 17.0532 11.2507 15.0452 11.2507 13.0372C11.2507 12.9632 11.2507 12.8892 11.2507 12.8024C10.5007 12.8024 9.76546 12.8024 9.00586 12.8024C9.00586 14.5396 9.00586 16.28 9.00586 18.0324C6.49466 18.0324 4.00786 18.0324 1.50586 18.0324C1.50586 17.794 1.50586 17.5548 1.50586 17.2976C3.74706 17.2976 5.98346 17.2976 8.24466 17.2976C8.24466 14.288 8.24466 11.2968 8.24466 8.29478C8.50386 8.29478 8.73826 8.29478 8.99106 8.29478C8.99106 9.53598 8.99106 10.7716 8.99106 12.0228C9.74866 12.0228 10.4879 12.0228 11.2511 12.0228C11.2511 11.9472 11.2511 11.874 11.2511 11.8012C11.2511 9.79958 11.2511 7.79758 11.2511 5.79598C11.2511 5.39798 11.3667 5.28198 11.7639 5.28198C12.7647 5.28158 13.7659 5.28198 14.7667 5.28198C14.8351 5.28198 14.9039 5.28198 14.9959 5.28198C14.9959 3.78278 14.9959 2.29238 14.9959 0.789978C17.5111 0.789978 20.0027 0.789978 22.5035 0.789978C22.5035 4.03518 22.5035 7.27278 22.5035 10.524C20.0115 10.524 17.5247 10.524 15.0131 10.524C15.0131 9.03838 15.0131 7.54798 15.0131 6.04558C14.0031 6.04558 13.0179 6.04558 12.0171 6.04558C12.0167 10.2864 12.0167 14.5292 12.0167 18.7884ZM16.8875 3.76558C18.1455 3.76558 19.3847 3.76558 20.6231 3.76558C20.6231 3.51558 20.6231 3.28118 20.6231 3.04518C19.3715 3.04518 18.1323 3.04518 16.8875 3.04518C16.8875 3.28998 16.8875 3.52038 16.8875 3.76558ZM20.6299 5.29718C19.3719 5.29718 18.1327 5.29718 16.8943 5.29718C16.8943 5.54718 16.8943 5.78158 16.8943 6.01758C18.1459 6.01758 19.3851 6.01758 20.6299 6.01758C20.6299 5.77278 20.6299 5.54278 20.6299 5.29718ZM16.8879 8.26998C18.1451 8.26998 19.3843 8.26998 20.6235 8.26998C20.6235 8.02038 20.6235 7.78598 20.6235 7.54878C19.3723 7.54878 18.1331 7.54878 16.8879 7.54878C16.8879 7.79358 16.8879 8.02358 16.8879 8.26998ZM16.8879 16.5284C18.1455 16.5284 19.3847 16.5284 20.6235 16.5284C20.6235 16.2788 20.6235 16.0444 20.6235 15.8076C19.3723 15.8076 18.1331 15.8076 16.8879 15.8076C16.8879 16.0524 16.8879 16.2824 16.8879 16.5284ZM20.6295 18.0596C19.3715 18.0596 18.1323 18.0596 16.8939 18.0596C16.8939 18.3092 16.8939 18.544 16.8939 18.78C18.1455 18.78 19.3847 18.78 20.6295 18.78C20.6295 18.5348 20.6295 18.3048 20.6295 18.0596ZM20.6295 20.3124C19.3707 20.3124 18.1315 20.3124 16.8943 20.3124C16.8943 20.5628 16.8943 20.7972 16.8943 21.032C18.1463 21.032 19.3855 21.032 20.6295 21.032C20.6295 20.7864 20.6295 20.5564 20.6295 20.3124Z" fill="#B5B3B3"/>
<path d="M7.4912 6.79797C7.4912 10.048 7.4912 13.2808 7.4912 16.5284C4.9936 16.5284 2.5024 16.5284 0 16.5284C0 13.2876 0 10.05 0 6.79797C2.4908 6.79797 4.982 6.79797 7.4912 6.79797ZM5.6044 9.78117C5.6044 9.52317 5.6044 9.28437 5.6044 9.04797C4.3536 9.04797 3.1188 9.04797 1.8824 9.04797C1.8824 9.29917 1.8824 9.53837 1.8824 9.78117C3.1284 9.78117 4.3588 9.78117 5.6044 9.78117ZM1.8784 11.2968C1.8784 11.5524 1.8784 11.7868 1.8784 12.0236C3.13 12.0236 4.3688 12.0236 5.608 12.0236C5.608 11.774 5.608 11.5396 5.608 11.2968C4.3612 11.2968 3.1264 11.2968 1.8784 11.2968ZM5.614 13.5552C4.3564 13.5552 3.1172 13.5552 1.8784 13.5552C1.8784 13.8048 1.8784 14.0392 1.8784 14.276C3.1296 14.276 4.3692 14.276 5.614 14.276C5.614 14.0312 5.614 13.8012 5.614 13.5552Z" fill="#B5B3B3"/>
<path d="M24.0001 12.0336C21.5029 12.0336 19.0209 12.0336 16.5225 12.0336C16.5225 11.7904 16.5225 11.5512 16.5225 11.294C18.7605 11.294 20.9969 11.294 23.2577 11.294C23.2577 8.28477 23.2577 5.29357 23.2577 2.29077C23.5165 2.29077 23.7513 2.29077 24.0005 2.29077C24.0001 5.53157 24.0001 8.77357 24.0001 12.0336Z" fill="#B5B3B3"/>
<path d="M23.2573 15.0468C23.5253 15.0468 23.7557 15.0468 24.0005 15.0468C24.0005 18.2944 24.0005 21.5364 24.0005 24.79C21.5129 24.79 19.0257 24.79 16.5225 24.79C16.5225 24.5548 16.5225 24.3156 16.5225 24.058C18.7597 24.058 20.9961 24.058 23.2573 24.058C23.2573 21.0484 23.2573 18.0568 23.2573 15.0468Z" fill="#B5B3B3"/>
</g>
<defs>
<clipPath id="clip0_275_1011">
<rect width="24" height="24" fill="white" transform="translate(0 0.789978)"/>
</clipPath>
</defs>
</svg>
