<svg width="24" height="25" viewBox="0 0 24 25" fill="none" xmlns="http://www.w3.org/2000/svg">
<g clip-path="url(#clip0_281_1222)">
<path d="M12.0167 18.1294C13.0143 18.1294 13.9951 18.1294 15.0007 18.1294C15.0007 16.3826 15.0007 14.6422 15.0007 12.8914C17.5123 12.8914 19.9991 12.8914 22.4991 12.8914C22.4991 16.1338 22.4991 19.371 22.4991 22.6246C20.0119 22.6246 17.5211 22.6246 15.0115 22.6246C15.0115 21.389 15.0115 20.1534 15.0115 18.8869C14.9215 18.8869 14.8499 18.8869 14.7779 18.8869C13.7643 18.8869 12.7511 18.8874 11.7375 18.8866C11.3775 18.8866 11.2511 18.7605 11.2511 18.4022C11.2507 16.3941 11.2507 14.3862 11.2507 12.3781C11.2507 12.3042 11.2507 12.2302 11.2507 12.1434C10.5007 12.1434 9.76546 12.1434 9.00586 12.1434C9.00586 13.8806 9.00586 15.621 9.00586 17.3734C6.49466 17.3734 4.00786 17.3734 1.50586 17.3734C1.50586 17.135 1.50586 16.8958 1.50586 16.6385C3.74706 16.6385 5.98346 16.6385 8.24466 16.6385C8.24466 13.629 8.24466 10.6378 8.24466 7.63575C8.50386 7.63575 8.73826 7.63575 8.99106 7.63575C8.99106 8.87695 8.99106 10.1126 8.99106 11.3638C9.74866 11.3638 10.4879 11.3638 11.2511 11.3638C11.2511 11.2882 11.2511 11.215 11.2511 11.1422C11.2511 9.14055 11.2511 7.13855 11.2511 5.13695C11.2511 4.73895 11.3667 4.62295 11.7639 4.62295C12.7647 4.62255 13.7659 4.62295 14.7667 4.62295C14.8351 4.62295 14.9039 4.62295 14.9959 4.62295C14.9959 3.12375 14.9959 1.63335 14.9959 0.130951C17.5111 0.130951 20.0027 0.130951 22.5035 0.130951C22.5035 3.37615 22.5035 6.61375 22.5035 9.86495C20.0115 9.86495 17.5247 9.86495 15.0131 9.86495C15.0131 8.37935 15.0131 6.88895 15.0131 5.38655C14.0031 5.38655 13.0179 5.38655 12.0171 5.38655C12.0167 9.62735 12.0167 13.8702 12.0167 18.1294ZM16.8875 3.10655C18.1455 3.10655 19.3847 3.10655 20.6231 3.10655C20.6231 2.85655 20.6231 2.62215 20.6231 2.38615C19.3715 2.38615 18.1323 2.38615 16.8875 2.38615C16.8875 2.63095 16.8875 2.86135 16.8875 3.10655ZM20.6299 4.63815C19.3719 4.63815 18.1327 4.63815 16.8943 4.63815C16.8943 4.88815 16.8943 5.12255 16.8943 5.35855C18.1459 5.35855 19.3851 5.35855 20.6299 5.35855C20.6299 5.11375 20.6299 4.88375 20.6299 4.63815ZM16.8879 7.61095C18.1451 7.61095 19.3843 7.61095 20.6235 7.61095C20.6235 7.36135 20.6235 7.12695 20.6235 6.88975C19.3723 6.88975 18.1331 6.88975 16.8879 6.88975C16.8879 7.13455 16.8879 7.36455 16.8879 7.61095ZM16.8879 15.8694C18.1455 15.8694 19.3847 15.8694 20.6235 15.8694C20.6235 15.6198 20.6235 15.3854 20.6235 15.1486C19.3723 15.1486 18.1331 15.1486 16.8879 15.1486C16.8879 15.3934 16.8879 15.6234 16.8879 15.8694ZM20.6295 17.4006C19.3715 17.4006 18.1323 17.4006 16.8939 17.4006C16.8939 17.6502 16.8939 17.885 16.8939 18.121C18.1455 18.121 19.3847 18.121 20.6295 18.121C20.6295 17.8757 20.6295 17.6458 20.6295 17.4006ZM20.6295 19.6534C19.3707 19.6534 18.1315 19.6534 16.8943 19.6534C16.8943 19.9037 16.8943 20.1381 16.8943 20.3729C18.1463 20.3729 19.3855 20.3729 20.6295 20.3729C20.6295 20.1273 20.6295 19.8974 20.6295 19.6534Z" fill="white"/>
<path d="M7.4912 6.13895C7.4912 9.38895 7.4912 12.6217 7.4912 15.8693C4.9936 15.8693 2.5024 15.8693 0 15.8693C0 12.6285 0 9.39095 0 6.13895C2.4908 6.13895 4.982 6.13895 7.4912 6.13895ZM5.6044 9.12215C5.6044 8.86415 5.6044 8.62535 5.6044 8.38895C4.3536 8.38895 3.1188 8.38895 1.8824 8.38895C1.8824 8.64015 1.8824 8.87935 1.8824 9.12215C3.1284 9.12215 4.3588 9.12215 5.6044 9.12215ZM1.8784 10.6377C1.8784 10.8933 1.8784 11.1277 1.8784 11.3645C3.13 11.3645 4.3688 11.3645 5.608 11.3645C5.608 11.1149 5.608 10.8805 5.608 10.6377C4.3612 10.6377 3.1264 10.6377 1.8784 10.6377ZM5.614 12.8961C4.3564 12.8961 3.1172 12.8961 1.8784 12.8961C1.8784 13.1457 1.8784 13.3801 1.8784 13.6169C3.1296 13.6169 4.3692 13.6169 5.614 13.6169C5.614 13.3721 5.614 13.1421 5.614 12.8961Z" fill="white"/>
<path d="M24.0001 11.3745C21.5029 11.3745 19.0209 11.3745 16.5225 11.3745C16.5225 11.1313 16.5225 10.8921 16.5225 10.6349C18.7605 10.6349 20.9969 10.6349 23.2577 10.6349C23.2577 7.62574 23.2577 4.63454 23.2577 1.63174C23.5165 1.63174 23.7513 1.63174 24.0005 1.63174C24.0001 4.87254 24.0001 8.11454 24.0001 11.3745Z" fill="white"/>
<path d="M23.2573 14.3878C23.5253 14.3878 23.7557 14.3878 24.0005 14.3878C24.0005 17.6354 24.0005 20.8774 24.0005 24.131C21.5129 24.131 19.0257 24.131 16.5225 24.131C16.5225 23.8958 16.5225 23.6566 16.5225 23.399C18.7597 23.399 20.9961 23.399 23.2573 23.399C23.2573 20.3894 23.2573 17.3978 23.2573 14.3878Z" fill="white"/>
</g>
<defs>
<clipPath id="clip0_281_1222">
<rect width="24" height="24" fill="white" transform="translate(0 0.130951)"/>
</clipPath>
</defs>
</svg>
