<svg width="24" height="25" viewBox="0 0 24 25" fill="none" xmlns="http://www.w3.org/2000/svg">
<g clip-path="url(#clip0_281_1228)">
<path d="M21.4363 19.4686C21.3563 19.615 21.3075 19.775 21.2039 19.8822C20.7283 20.3758 20.2407 20.8586 19.7503 21.3378C19.5083 21.5746 19.2251 21.5886 18.9431 21.389C18.5263 21.0942 18.1103 20.7986 17.7007 20.4942C17.4371 20.2978 17.1795 20.281 16.8963 20.4502C16.1267 20.9102 15.3059 21.2518 14.4367 21.471C14.0967 21.5566 13.9223 21.755 13.8763 22.1014C13.8119 22.5842 13.7259 23.0642 13.6463 23.545C13.5799 23.9478 13.3719 24.127 12.9603 24.129C12.3203 24.1322 11.6803 24.1318 11.0399 24.1286C10.6171 24.1266 10.4131 23.9442 10.3475 23.5262C10.2695 23.0298 10.1911 22.5334 10.1103 22.0374C10.0643 21.7562 9.9151 21.5682 9.6283 21.4938C8.7239 21.259 7.8671 20.9078 7.0631 20.4302C6.8135 20.2818 6.5727 20.2974 6.3375 20.4678C5.9179 20.7718 5.4979 21.0746 5.0755 21.3746C4.7619 21.5974 4.4859 21.5774 4.2151 21.3098C3.7487 20.8494 3.2847 20.387 2.8235 19.9214C2.5479 19.6434 2.5303 19.3674 2.7615 19.0426C3.0487 18.6394 3.3343 18.2346 3.6307 17.8382C3.8335 17.5666 3.8435 17.3042 3.6703 17.0134C3.2191 16.2562 2.8779 15.451 2.6679 14.595C2.5803 14.2378 2.3759 14.0518 2.0095 14.005C1.5339 13.9442 1.0619 13.855 0.5883 13.779C0.1863 13.7142 0.0035 13.5058 0.0019 13.0962C-0.0005 12.4486 -0.0009 11.801 0.0023 11.153C0.0043 10.7538 0.1827 10.5502 0.5767 10.4858C1.0651 10.4062 1.5531 10.3226 2.0431 10.2518C2.3771 10.2034 2.5743 10.0306 2.6567 9.69936C2.8751 8.82176 3.2231 7.99576 3.6855 7.21856C3.8435 6.95296 3.8331 6.70336 3.6499 6.45296C3.3527 6.04736 3.0611 5.63776 2.7695 5.22816C2.5279 4.88936 2.5451 4.62176 2.8315 4.33256C3.2875 3.87256 3.7455 3.41456 4.2055 2.95896C4.4855 2.68176 4.7611 2.66136 5.0835 2.89136C5.4867 3.17896 5.8915 3.46416 6.2875 3.76136C6.5587 3.96496 6.8203 3.97776 7.1119 3.80496C7.8763 3.35216 8.6883 3.00896 9.5511 2.79416C9.8995 2.70736 10.0771 2.50216 10.1235 2.14616C10.1875 1.65576 10.2739 1.16776 10.3571 0.679756C10.4191 0.316156 10.6311 0.136556 11.0039 0.133756C11.6667 0.129356 12.3299 0.128956 12.9927 0.133356C13.3715 0.136156 13.5803 0.321356 13.6439 0.702156C13.7255 1.19016 13.8087 1.67856 13.8779 2.16856C13.9235 2.49136 14.0787 2.69536 14.4027 2.77856C15.2931 3.00696 16.1363 3.35136 16.9251 3.82576C17.1811 3.97976 17.4295 3.96336 17.6715 3.78696C18.0839 3.48656 18.4979 3.18776 18.9131 2.89096C19.2363 2.66016 19.5079 2.67896 19.7907 2.95816C20.2567 3.41856 20.7203 3.88216 21.1811 4.34776C21.4475 4.61696 21.4659 4.89296 21.2419 5.20856C20.9511 5.61856 20.6615 6.02976 20.3611 6.43296C20.1639 6.69776 20.1519 6.95336 20.3211 7.23656C20.7763 7.99976 21.1203 8.81136 21.3339 9.67456C21.4227 10.0334 21.6331 10.2102 21.9991 10.2558C22.4823 10.3162 22.9623 10.4046 23.4423 10.489C23.8243 10.5562 23.9951 10.7606 23.9971 11.1506C24.0011 11.8058 24.0015 12.4614 23.9971 13.1166C23.9947 13.4978 23.8143 13.7078 23.4339 13.7734C22.9387 13.8586 22.4427 13.9402 21.9455 14.0134C21.6331 14.0594 21.4359 14.211 21.3543 14.5278C21.1247 15.4174 20.7787 16.2606 20.3063 17.0502C20.1467 17.317 20.1687 17.5654 20.3523 17.8142C20.6555 18.225 20.9543 18.6386 21.2443 19.0586C21.3235 19.1742 21.3651 19.3142 21.4363 19.4686ZM19.8975 12.1238C19.8911 7.76496 16.3559 4.23416 11.9975 4.23416C7.6423 4.23376 4.1035 7.77096 4.1015 12.1266C4.0991 16.4914 7.6471 20.0354 12.0119 20.0282C16.3675 20.021 19.9039 16.4762 19.8975 12.1238Z" fill="white"/>
<path d="M17.6064 15.8678C16.1712 17.8374 14.286 18.8926 11.8688 18.8486C9.55725 18.8062 7.75605 17.7554 6.38965 15.8582C7.35525 15.331 8.28805 14.8218 9.23205 14.3062C9.36085 14.4386 9.47725 14.5682 9.60405 14.687C11.0304 16.0246 13.2376 15.9498 14.5624 14.5098C14.7128 14.3462 14.8156 14.321 15.0124 14.4326C15.8008 14.8786 16.6005 15.3042 17.3956 15.7382C17.4541 15.7706 17.51 15.8086 17.6064 15.8678Z" fill="white"/>
<path d="M12.6107 5.42575C14.7259 5.67015 16.4071 6.63135 17.5803 8.39215C18.9215 10.4046 19.0599 12.5562 18.1743 14.8278C18.0215 14.7458 17.8971 14.6793 17.7731 14.6118C17.0243 14.2038 16.2779 13.7922 15.5259 13.3906C15.3759 13.3106 15.3239 13.2394 15.3739 13.0578C15.9063 11.1222 14.7391 9.17295 12.7771 8.71375C12.6431 8.68255 12.5807 8.64135 12.5811 8.49535C12.5859 7.52815 12.5835 6.56095 12.5847 5.59375C12.5851 5.55055 12.5979 5.50735 12.6107 5.42575Z" fill="white"/>
<path d="M11.4003 5.42416C11.4071 5.54336 11.4147 5.61736 11.4147 5.69136C11.4155 6.60536 11.4123 7.51976 11.4187 8.43376C11.4199 8.60416 11.3811 8.67976 11.1939 8.72376C9.24905 9.18096 8.09825 11.1282 8.62385 13.0646C8.66905 13.2306 8.63465 13.305 8.48625 13.3842C7.65385 13.829 6.82705 14.285 5.99825 14.737C5.95185 14.7622 5.90305 14.7826 5.81945 14.8222C4.95305 12.6166 5.06585 10.497 6.34505 8.50256C7.51585 6.67696 9.22345 5.67936 11.4003 5.42416Z" fill="white"/>
<path d="M9.66118 12.1122C9.66918 10.827 10.7284 9.78456 12.0192 9.79216C13.3056 9.79976 14.3476 10.8582 14.3396 12.1494C14.3316 13.4354 13.2724 14.4778 11.982 14.4698C10.6964 14.4622 9.65318 13.4018 9.66118 12.1122ZM12.0096 11.5518C11.6836 11.5478 11.426 11.797 11.4208 12.1214C11.4152 12.4458 11.666 12.7046 11.9904 12.7102C12.3136 12.7154 12.5748 12.463 12.5792 12.1402C12.5836 11.815 12.3328 11.5558 12.0096 11.5518Z" fill="white"/>
</g>
<defs>
<clipPath id="clip0_281_1228">
<rect width="24" height="24" fill="white" transform="translate(0 0.130951)"/>
</clipPath>
</defs>
</svg>
