<svg width="24" height="25" viewBox="0 0 24 25" fill="none" xmlns="http://www.w3.org/2000/svg">
<g clip-path="url(#clip0_275_1017)">
<path d="M21.4363 20.1276C21.3563 20.274 21.3075 20.434 21.2039 20.5412C20.7283 21.0348 20.2407 21.5176 19.7503 21.9968C19.5083 22.2336 19.2251 22.2476 18.9431 22.048C18.5263 21.7532 18.1103 21.4576 17.7007 21.1532C17.4371 20.9568 17.1795 20.94 16.8963 21.1092C16.1267 21.5692 15.3059 21.9108 14.4367 22.13C14.0967 22.2156 13.9223 22.414 13.8763 22.7604C13.8119 23.2432 13.7259 23.7232 13.6463 24.204C13.5799 24.6068 13.3719 24.786 12.9603 24.788C12.3203 24.7912 11.6803 24.7908 11.0399 24.7876C10.6171 24.7856 10.4131 24.6032 10.3475 24.1852C10.2695 23.6888 10.1911 23.1924 10.1103 22.6964C10.0643 22.4152 9.9151 22.2272 9.6283 22.1528C8.7239 21.918 7.8671 21.5668 7.0631 21.0892C6.8135 20.9408 6.5727 20.9564 6.3375 21.1268C5.9179 21.4308 5.4979 21.7336 5.0755 22.0336C4.7619 22.2564 4.4859 22.2364 4.2151 21.9688C3.7487 21.5084 3.2847 21.046 2.8235 20.5804C2.5479 20.3024 2.5303 20.0264 2.7615 19.7016C3.0487 19.2984 3.3343 18.8936 3.6307 18.4972C3.8335 18.2256 3.8435 17.9632 3.6703 17.6724C3.2191 16.9152 2.8779 16.11 2.6679 15.254C2.5803 14.8968 2.3759 14.7108 2.0095 14.664C1.5339 14.6032 1.0619 14.514 0.5883 14.438C0.1863 14.3732 0.0035 14.1648 0.0019 13.7552C-0.0005 13.1076 -0.0009 12.46 0.0023 11.812C0.0043 11.4128 0.1827 11.2092 0.5767 11.1448C1.0651 11.0652 1.5531 10.9816 2.0431 10.9108C2.3771 10.8624 2.5743 10.6896 2.6567 10.3584C2.8751 9.48078 3.2231 8.65478 3.6855 7.87758C3.8435 7.61198 3.8331 7.36238 3.6499 7.11198C3.3527 6.70638 3.0611 6.29678 2.7695 5.88718C2.5279 5.54838 2.5451 5.28078 2.8315 4.99158C3.2875 4.53158 3.7455 4.07358 4.2055 3.61798C4.4855 3.34078 4.7611 3.32038 5.0835 3.55038C5.4867 3.83798 5.8915 4.12318 6.2875 4.42038C6.5587 4.62398 6.8203 4.63678 7.1119 4.46398C7.8763 4.01118 8.6883 3.66798 9.5511 3.45318C9.8995 3.36638 10.0771 3.16118 10.1235 2.80518C10.1875 2.31478 10.2739 1.82678 10.3571 1.33878C10.4191 0.975183 10.6311 0.795583 11.0039 0.792783C11.6667 0.788383 12.3299 0.787983 12.9927 0.792383C13.3715 0.795183 13.5803 0.980383 13.6439 1.36118C13.7255 1.84918 13.8087 2.33758 13.8779 2.82758C13.9235 3.15038 14.0787 3.35438 14.4027 3.43758C15.2931 3.66598 16.1363 4.01038 16.9251 4.48478C17.1811 4.63878 17.4295 4.62238 17.6715 4.44598C18.0839 4.14558 18.4979 3.84678 18.9131 3.54998C19.2363 3.31918 19.5079 3.33798 19.7907 3.61718C20.2567 4.07758 20.7203 4.54118 21.1811 5.00678C21.4475 5.27598 21.4659 5.55198 21.2419 5.86758C20.9511 6.27758 20.6615 6.68878 20.3611 7.09198C20.1639 7.35678 20.1519 7.61238 20.3211 7.89558C20.7763 8.65878 21.1203 9.47038 21.3339 10.3336C21.4227 10.6924 21.6331 10.8692 21.9991 10.9148C22.4823 10.9752 22.9623 11.0636 23.4423 11.148C23.8243 11.2152 23.9951 11.4196 23.9971 11.8096C24.0011 12.4648 24.0015 13.1204 23.9971 13.7756C23.9947 14.1568 23.8143 14.3668 23.4339 14.4324C22.9387 14.5176 22.4427 14.5992 21.9455 14.6724C21.6331 14.7184 21.4359 14.87 21.3543 15.1868C21.1247 16.0764 20.7787 16.9196 20.3063 17.7092C20.1467 17.976 20.1687 18.2244 20.3523 18.4732C20.6555 18.884 20.9543 19.2976 21.2443 19.7176C21.3235 19.8332 21.3651 19.9732 21.4363 20.1276ZM19.8975 12.7828C19.8911 8.42398 16.3559 4.89318 11.9975 4.89318C7.6423 4.89278 4.1035 8.42998 4.1015 12.7856C4.0991 17.1504 7.6471 20.6944 12.0119 20.6872C16.3675 20.68 19.9039 17.1352 19.8975 12.7828Z" fill="#B5B3B3"/>
<path d="M17.6064 16.5268C16.1712 18.4964 14.286 19.5516 11.8688 19.5076C9.55725 19.4652 7.75605 18.4144 6.38965 16.5172C7.35525 15.99 8.28805 15.4808 9.23205 14.9652C9.36085 15.0976 9.47725 15.2272 9.60405 15.346C11.0304 16.6836 13.2376 16.6088 14.5624 15.1688C14.7128 15.0052 14.8156 14.98 15.0124 15.0916C15.8008 15.5376 16.6005 15.9632 17.3956 16.3972C17.4541 16.4296 17.51 16.4676 17.6064 16.5268Z" fill="#B5B3B3"/>
<path d="M12.6107 6.08478C14.7259 6.32918 16.4071 7.29038 17.5803 9.05118C18.9215 11.0636 19.0599 13.2152 18.1743 15.4868C18.0215 15.4048 17.8971 15.3384 17.7731 15.2708C17.0243 14.8628 16.2779 14.4512 15.5259 14.0496C15.3759 13.9696 15.3239 13.8984 15.3739 13.7168C15.9063 11.7812 14.7391 9.83198 12.7771 9.37278C12.6431 9.34158 12.5807 9.30038 12.5811 9.15438C12.5859 8.18718 12.5835 7.21998 12.5847 6.25278C12.5851 6.20958 12.5979 6.16638 12.6107 6.08478Z" fill="#B5B3B3"/>
<path d="M11.4003 6.08319C11.4071 6.20239 11.4147 6.27639 11.4147 6.35039C11.4155 7.26439 11.4123 8.17879 11.4187 9.09279C11.4199 9.26319 11.3811 9.33879 11.1939 9.38279C9.24905 9.83999 8.09825 11.7872 8.62385 13.7236C8.66905 13.8896 8.63465 13.964 8.48625 14.0432C7.65385 14.488 6.82705 14.944 5.99825 15.396C5.95185 15.4212 5.90305 15.4416 5.81945 15.4812C4.95305 13.2756 5.06585 11.156 6.34505 9.16159C7.51585 7.33599 9.22345 6.33839 11.4003 6.08319Z" fill="#B5B3B3"/>
<path d="M9.66118 12.7712C9.66918 11.486 10.7284 10.4436 12.0192 10.4512C13.3056 10.4588 14.3476 11.5172 14.3396 12.8084C14.3316 14.0944 13.2724 15.1368 11.982 15.1288C10.6964 15.1212 9.65318 14.0608 9.66118 12.7712ZM12.0096 12.2108C11.6836 12.2068 11.426 12.456 11.4208 12.7804C11.4152 13.1048 11.666 13.3636 11.9904 13.3692C12.3136 13.3744 12.5748 13.122 12.5792 12.7992C12.5836 12.474 12.3328 12.2148 12.0096 12.2108Z" fill="#B5B3B3"/>
</g>
<defs>
<clipPath id="clip0_275_1017">
<rect width="24" height="24" fill="white" transform="translate(0 0.789978)"/>
</clipPath>
</defs>
</svg>
